<?xml version="1.0" encoding="utf-8"?>
<!-- Generator: Adobe Illustrator 24.2.3, SVG Export Plug-In . SVG Version: 6.00 Build 0)  -->
<svg version="1.1" id="Layer_1" xmlns="http://www.w3.org/2000/svg" xmlns:xlink="http://www.w3.org/1999/xlink" x="0px" y="0px"
	 viewBox="0 0 56.3 50.9" style="enable-background:new 0 0 56.3 50.9;" xml:space="preserve">
<g>
	<g>
		<path d="M43.9,22.8c0-0.3,0.2-0.6,0.3-0.8c-0.1,0-0.6-0.3-0.3-0.4c-0.4-0.1-0.7-0.3-1.1-0.4c-0.4-0.4-0.7-2.4-0.5-3
			c0.1-0.4,0.8-0.7,0.9-1.2c-0.1-0.2-0.4-0.3-0.6-0.5c-0.7-0.9-0.5-1.5-0.4-2.6c0.8-0.3,1.2-1.1,1.7-1.8c-0.1,0-0.2-0.1-0.2-0.1
			c-0.7,0.3-1.3,1-2.3,1.1c-0.1-0.3-0.5-0.6-0.8-0.8c0.1-0.7-0.4-1.1-0.6-1.6c0-0.2-0.1-1.2,0-1.2c-0.2-0.4-0.6-1-0.4-1.7
			C40,6.7,41,5.6,41.5,4.4c0.4-1.1,0.5-2.3,0.9-3.1c0.2-0.4,0.5-0.8,0.8-1.3c0.4,0.1,0.8,0,1.1,0.3c0.2,0.2,0.2,0.6,0.4,0.8
			c0.4,0.3,0.8,0.6,1.1,1c0.5,0.6,0.9,1.5,0.9,2.3c0,0.6-0.9,2-1.2,2.6c0,0,0.1,0,0.1,0c1.3-0.9,2.2-0.7,3.1,0.1
			c0.2,0,0.1-0.1,0.3,0c0.1,0.2,0.3,0.4,0.5,0.7c0,0.1-0.1,0.2-0.1,0.3c0.8,0.2,0.6,0.6,0.8,0.9c0.1,0.1,0.2,0.3,0.3,0.4
			c-0.5,1.2-1.3,1.6-2.3,2.4c-0.1-0.1-0.1-0.1-0.2-0.2C47.8,12,47.1,12,47,12.4c-0.1-0.1-0.2-0.1-0.3-0.2c-0.1,0.5-3.5,1.4-2.6,2.2
			c0.8-0.6,2.7-0.3,3.3,0.4c0,0.1,0,0.2,0,0.3c0.4,0.1,0.9,0.6,1,1.1c-0.4,0.1-0.5,0.5-0.8,0.8c-0.2,0.2-1.3,0.7-1.9,0.7
			c0,0.2-0.1,0.3-0.1,0.5c-0.2,0-0.2,0.1-0.4,0.1c0,0.1,0.1,0.1,0.1,0.2c0.4-0.1,0.8-0.3,1.2-0.2c0,0.1,0,0.1,0,0.3c0,0,0.1,0,0.1,0
			c0.2-0.3,0.2-0.3,0.4-0.2c0.1,0.2,0.3,0.3,0.5,0.3c0,0.1,0,0.2,0,0.3c0.2-0.1,0.3-0.1,0.5-0.1c0,0.1,0,0.2,0,0.3
			c0.4-0.2,0.8,0.7,1.1,1.1c0.1,0.1,0.3,0.1,0.4,0.2c0.2,0.2,0.1,0.8,0.2,0.9c0.1-0.1,0.1,0,0.2,0c0-0.1,0-0.1,0-0.2
			c0.2,0,0.1,0,0.2,0c-0.1-0.1,0,0,0-0.1c0,0,0.1,0,0.1,0c0.1,0.1,0,0.1,0.2,0.1c0.1-0.3,0.3-0.9,0.7-1c0.1-0.6-0.3-1.2-0.5-1.5
			c-0.6-1.2-0.3-3.2,0.3-4.3c-0.2-0.1-0.1-0.1-0.2-0.2c-0.3,0.3-2-0.4-1.8-1.1c0.4,0.2,1.1-0.3,1.6-0.4c0-0.1,0.1-0.2,0.1-0.4
			c0.5-0.1,0.8-0.3,1.3-0.4c0,0,2,0.6,2,0.7c0.2,0.5,1.2,1.3,0.7,1.9c-0.1,0.1-0.4,0-0.6,0.1c-0.7,0.3-1.5,2-1.8,2.8
			c0.4-0.1,0.8-0.1,1.2-0.3c1.5,0.6,2.7,1.9,2,3.5c-0.6,0-0.8,0.4-1.2,0.8c-0.8-0.3-1.3-0.1-2-0.4c-0.3,0.1-0.4,0.3-0.8,0.4
			c0-0.1-0.1-0.1-0.1-0.2c-0.1,0.2-2.8,1.8-3.1,1.6c-0.4,1.2-2.2,1-2.9,2c-0.5-0.3-0.9,0.1-1.3,0c0-0.1,0-0.1,0-0.2
			c-0.6,0.4-0.9,0.5-1.4,0.1l-0.8-0.1c0,0-0.1-0.1-0.1-0.1c0.4-0.7,1.5-0.5,1.9-1.4C43.7,22.8,43.8,22.8,43.9,22.8z"/>
		<path d="M15,0.4c0.8,0.1,1.2,0.2,1.9,0.6c0.1,0.4,0.3,0.4,0.4,0.8c0,0.1,0,0.7,0,0.9c0,0.2,0.1,0.1,0.2,0.1c0.1,0,0.2,0.1,0.3,0.1
			c-0.1,0.3-0.1,0.2,0,0.5c0.2,0,0.4,0.1,0.5,0.3c0,0.3,0.2,0.6,0,1c-0.2,0.5-0.7,0.8-1,1.2c0,0-0.1,0.8-0.1,0.9
			c0.3,0,0.5,0.2,0.5,0.5C18.3,7,18.4,7.5,19,7.7c-0.3,1.8-1,1.6-2,3c-0.1-0.1-0.1-0.1-0.2,0c0.4,0.4,2.7,0.8,2.3,1.7
			c0,1.3-4,4.6-5.5,5c-0.7,0.2-2.1-0.4-2.5,0c-0.3,0.2-1.5,1.9-1.7,2.3c0,0,0,0,0,0c1.6-0.6,3.2-1.2,4.8-1.9
			c1.6-0.6,3.4-0.7,5.2-1.3c0.9-0.3,1.8-0.8,2.5-1c1.3-0.4,3.5,1.2,3.9,2c0.3,0.7-0.3,1.4-0.8,1.7c0,0-0.1,0-0.1,0
			c-0.1,0-1.9,0.2-2,0c-0.3,0.2-0.7,0.2-1.1,0.4c-1.2,0.6-2.5,1.2-3.6,1.7c-0.5,0.2-0.7,0.1-1.1,0.3c-0.2,1-2.1,2-2.6,3.1
			c0,0,0.1,0,0.1,0c0.5,0.1,1,0.2,1.5,0.3c1.8,0.8,1.6,2.5,1.2,3.8c0.2,0.1,0.1,0.1,0.2,0.1c-0.1,0.2-0.5,0.9-0.3,1
			c-0.2,0.3-0.9,1.4-0.7,1.6c-0.5,0.8-1.5,0.7-2.6,0.9c0-0.2,0-0.1-0.1-0.2c-0.1,0-0.3,0-0.4,0c0,0.2-1.1,1.6-1.3,1.8
			c0,0.2,0,0.5,0.1,0.6c1.1,0.5,4.5,0.2,5.6-0.5c0.2-0.1,0.3-0.9,0.5-1.1c-0.2,0-0.1,0-0.1-0.2c0.4-1,0.1-1.6,0.3-2.7
			c0.1-0.3-0.1-0.9,0-1.3c0,0,0,0.1,0,0.1c0.2,0.4,0,0.8,0.1,1.2c0.2,0.7,0.5,1.5,0.9,2.3c0.1,0.2,0.1,0.6,0.2,0.7
			c1,0.8,1.1,2,0.1,3c-0.4,0.4-1.8,0.2-2.5,0.4c-0.1,0-0.9,0.2-1,0c-0.2,0.3-1.2,0.1-1.9,0.1c-1.3,0.1-2.9-0.1-4.2,0.4
			c-0.2,0.1-0.9-0.7-1-0.8c0.1-0.5-0.3-1-0.2-1.4c0.3-1,1-1.5,1.3-2.4c0,0,0,0,0,0c-1.2,0.1-1.9-1.5-1.3-2.7
			c0.1-0.1,0.2-0.1,0.4-0.2c0.2-0.3,0.1-0.7,0.3-0.9c0.4-0.9,1.9-0.7,2.7-0.8c0.3,0,1.1,0.1,1.4,0.5c0,0.2,0.2,0.2,0.2,0.4
			c0.1,0.3-0.3,1.4-0.3,1.8c0,0,0.1,0,0.1,0c0.4-0.2,0.8-0.2,1.1-0.5c0.2-0.2,1.2-2.8,0.8-3.4c-0.5-0.7-2.6,0-3.1,0.2
			c-0.8-0.3-1.4-1.7-1-2.6c0.2-0.5,1.2-0.8,1.6-1c0-0.1,0.1-0.3,0.1-0.4c-1.3,0.1-2.6,1.7-4.1,1.5c-0.2-0.4-0.2-1.4,0.1-1.7
			c0.1-0.1,3.2-1,3.8-1.1c0.2,0,0.4-0.1,0.7-0.1c0.2-0.1,0.4-0.4,0.7-0.4c0.2,0,0.5,0,0.7,0c0.5,0.1,1.2,0.5,1.7,0.4
			c1.5-0.3,4.6-2.2,5.4-3.6c-1.2-1-4-0.2-5.5,0.3c-4.4,1.5-10.3,3.4-11.5,7.7c-0.1,0.1-0.2,0.1-0.4,0.2C5.1,26.1,3.8,29,3,29.2
			c-0.4-0.1-0.7-0.1-1.1-0.2c-0.4-0.3-0.6-0.6-0.8-1.1c0-0.1,0-0.2,0-0.3c-0.5-0.6-0.8-0.8-1.2-1.4c0.9-2.7,3.4-3.5,5.4-4.9
			c0.1-0.2,0.2-0.4,0.4-0.5c1.7-1.4,2.8-3.9,4.6-5.3c0.4-0.3,1.9-0.1,2.3,0.1c0.9-0.4,1.6-1.2,2.1-2.2c0,0-0.1,0-0.1,0
			c-1.4,0.4-2.3,1.2-3.7,0.8c-0.3-0.7-0.6-1.2-0.3-1.8c0,0,0-0.1,0-0.1c-0.3,0.1-0.8,0-0.9-0.4c-0.3-0.6-0.5-2,0.1-2.5
			c0.3-0.3,0.9,0,1.3-0.2c0.6-0.2,1.1-0.9,1.7-1.2c0-0.2,0.2-0.4,0-0.6c-0.3,0.1-0.5,0-0.8-0.1C10.8,7.1,9.7,7,9.1,5.6
			c0.7-0.8,1.9-1.3,2.8-1.8c0.2,0,0.3-0.1,0.5-0.1c0.2-0.2,0.1-0.4,0.5-0.4C12.6,1.6,13.8,0.9,15,0.4z"/>
		<path d="M31.7,5.6c1.7,0.1,2.9,0.8,4,1.7c-0.1,0.1-0.2,0.2-0.2,0.4c0.1,0.1,0.2,0.1,0.3,0.3c-0.3,0.6-0.4,1.2-0.8,1.7
			c-0.5,0.7-1.6,0.7-2.3,1.2c-0.8,0.6-1.7,1.6-2.3,2.4c-0.3,0.4-1.8,1.7-1.1,2.4c0.2,0.7,0.9,0.9,1.3,1.4c0.7,0.9,2.5,2.9,1.5,4
			c-0.3,0.5-0.9,1.1-1.1,1.8c0,0.2,0,0.4,0,0.5c-0.2,1-0.2,1.8-0.4,2.6c-0.1,0.5,0.1,1.5-0.2,2.1c0,0,0,0,0,0c0-0.8,0.1-1.6,0.1-2.4
			c0-0.5,0-0.9,0-1.4c-0.2-0.8-0.5-2.6-0.4-3.4c-0.1-0.5-0.2-1-0.3-1.5c-0.6-0.6-1.4-2.5-1.1-3.6c0.3-1.3,1.3-2.3,1.9-3.4
			c0.4-0.6,0.4-1.4,0.8-2.1c0.2-0.4,0.7-0.7,0.8-1.3c0.2-0.6,0.3-1.7,0.1-2.2C32.1,6.5,31.5,6,31.7,5.6C31.7,5.6,31.7,5.6,31.7,5.6z
			"/>
		<path d="M43.6,12.2C43.6,12.2,43.7,12.3,43.6,12.2C43.7,12.3,43.6,12.2,43.6,12.2z"/>
		<path d="M37.4,12.6c1.2,0.4,3.3,1.1,3.8,2.5c0.3,0.7-0.5,1.4-0.2,2.1c-0.2,0.1-0.3,0.2-0.4,0.4c-0.3,0-0.5,0-0.8,0
			c-0.4,0.3-1.8,2.4-1.9,3c0,0,0,0,0,0c0.9-0.7,1.8-1.3,2.6-2c0,0,0,0.1,0,0.1c0.4-0.3,0.7-0.7,1.1-1.1c0,0.1,0,0.1,0,0.2
			c-0.2,0.4-0.2,0.7-0.3,1.1c0.1,0,0.2,0,0.3,0c-0.2,0.2-0.5,0.4-0.6,0.7c0.4,0.5,0,0.4-0.1,1c0,0,0,0,0,0c0.2-0.2,0.5-0.4,0.7-0.6
			c-0.2,0.6-0.9,1.7-1.4,2.3c-0.1,0.1-0.3,0.2-0.4,0.3c-0.2,0.4-0.2,0.9-0.4,1.1c-0.2,0.1-0.4,0.1-0.5,0.2c0,0.2-1.3,1.6-1.5,1.7
			c0-0.2,0-0.2,0.1-0.3c0,0-0.1,0-0.1,0c-0.5,0.6-0.9,0-1.2-0.4c-0.6-1.1-0.7-2.2-0.8-3.5c0.6-0.8,1.9-2.8,1.5-4.1
			c-0.6-0.3-2.1-0.2-2.8-1.1c0-0.2-0.1-0.4-0.1-0.6c0.3-0.1,0.6-0.3,0.9-0.4c0.4-0.3,0.5-0.7,1-0.8c0.1-0.6,0.5-1.2,0.8-1.6
			C37,12.6,37.3,12.6,37.4,12.6z"/>
		<path d="M42.2,16.9c0,0.1,0,0,0,0.1C42.2,17,42.2,17,42.2,16.9z"/>
		<path d="M42.1,17c0,0.1-0.1,0.2-0.1,0.3c0,0,0,0,0,0c0,0,0,0,0,0C42,17.2,42.1,17.1,42.1,17z"/>
		<path d="M41.9,17.3c0,0,0,0.1,0,0.1c-0.1,0-0.1,0.1-0.2,0.1C41.7,17.4,41.8,17.5,41.9,17.3z"/>
		<path d="M50.4,20.5C50.4,20.6,50.4,20.6,50.4,20.5C50.4,20.6,50.4,20.6,50.4,20.5z"/>
		<path d="M49.9,20.9C49.9,20.9,49.9,20.9,49.9,20.9C49.9,20.9,49.9,20.9,49.9,20.9z"/>
		<path d="M22.8,22.3c0.3,0.1,0.7,0.2,1.2,0.2c0.2,0.3,0.5,0.5,0.7,0.7c0,1.4-0.9,2.9-2.8,2.6c0-0.1,0-0.1,0-0.2
			c0.4-0.2,0.4-2.1,0-2.1c-0.1-0.1-0.4-0.4-0.4-0.5c0-0.1,0-0.2,0-0.4c0.2-0.1,0.1,0,0.2-0.1C22,22.5,22.6,22.4,22.8,22.3z"/>
		<path d="M48.3,24.5c1.1,0.2,1.6,0,2.5,0.6c-0.2,0.5,0.5,0.5,0.2,1c0.2,0.4,0.5,1.3,0,1.7c-0.4,0.4-1.1-0.1-1.5,0.9
			c-0.1-0.1-0.1-0.1-0.3-0.1c-0.1,0.3-2.6,3.3-3.1,3.7c-0.5,0.4-0.5,1.2-1.1,1.5c0,0.4,0,0.4,0.2,0.6c1.5-0.5,5.1-2.7,6.2-1.6
			c0.5,1.1,0.3,2.4-0.2,3.6c-0.3,0-0.4,0.1-0.5,0.3c0.2,0,0.2,0,0.3,0.2c-0.3,0.7-0.5,1.8-1.2,2.2c0.1,0.1,0.1,0.3,0.2,0.4
			c-0.1,0.2-0.3,0.4-0.4,0.5c0.1,0,0.1,0.1,0.2,0.1c-0.1,0.2-0.6,0.6-0.5,0.7c0,0.1,0,0.1,0.1,0.3c-0.1,0.1,0,0.1-0.1,0.1
			c-0.1,0.1-0.3,0.1-0.5,0.1c0,0.2-0.1,0.1,0,0.2c0.1-0.1,0.1-0.1,0.2-0.1c0,0,0,0,0,0c-0.1,0.2-0.1,0.3-0.2,0.6
			c0.1,0,0.1-0.1,0.2-0.1c-0.1,0.3-0.2,0.3-0.4,0.5c0.1,0.1,0,0.1,0.2,0.1c0,0.1-0.1,0.3-0.1,0.4c-0.2,0.1-0.1,0.1-0.4,0
			c0,0.2-0.1,0.2-0.1,0.4c0.1,0,0.1,0,0.2,0c-0.1,0.4-0.6,0.4-0.8,0.8c0.3,0.1,0.2,0.1,0.5,0.2c0,0.1-0.1,0.1-0.1,0.2
			c-0.1-0.2,0-0.1-0.1-0.2c-0.1,0.2-0.1,0.2-0.2,0.3c0-0.2,0-0.1-0.1-0.1c-0.1,0.1-0.1,0.2-0.2,0.4c0.2,0,0.4,0,0.4,0.1
			c0,0-0.1,0-0.1,0c-0.2,0.2-0.4,0.2-0.6,0.4c-0.2-0.1-0.1-0.1-0.3-0.1c-0.1,0.1-0.1,0-0.1,0.1c0.2,0,0.1,0,0.3,0c0,0.1,0,0.1,0,0.2
			c-0.1,0-0.1,0-0.2,0c0.1,0.1,0.1,0.1,0.1,0.2c0,0-0.1,0-0.1,0c-0.1,0-0.1-0.1-0.2-0.1c0,0.2,0,0.1,0,0.2c-0.2-0.1-0.4,0.1-0.6,0
			c0,0.1,0,0.1,0,0.2c0.1,0,0.1,0,0.2,0c-0.1,0.1-0.2,0.3-0.3,0.3c-0.4,0.1-0.6,0-1,0.3c-0.1-0.1,0-0.1-0.2-0.2
			c-0.1-0.1-0.3-0.1-0.4,0c0.3,0.1,0.2,0,0.1,0.2c0.3,0,0.2-0.1,0.4,0c-0.1,0.2-0.1,0.2,0,0.4c0,0-0.1,0-0.1,0
			c-0.2-0.1-0.2,0-0.4-0.2c-0.2,0.2-0.8,0.2-1,0.2c0-0.1,0-0.1-0.1-0.2c-0.1,0-0.3,0.1-0.4,0.1c0,0.1-0.1,0.1-0.1,0.2
			c0.1,0.1,0.1,0.1,0.2,0.1c0,0,0.2,0,0.3,0.1c0,0,0,0,0,0c0,0.1-0.1,0.2-0.1,0.3c-0.6-0.2-1.2-0.2-1.6,0.1c0,0.2,0,0.2-0.1,0.3
			c-0.2,0-1.2,0.2-1.4,0c0-0.1-0.3-0.2-0.4-0.3c0,0,0,0.1,0,0.1c-0.1,0.1,0,0,0,0.1c-0.2,0-0.4,0-0.5,0c-0.1-0.1-0.2-0.3-0.4-0.4
			c0,0,0.1-0.1,0.1-0.1c0,0,0,0,0,0c0,0,0.1,0,0.1,0c0,0.2,0,0.2,0.1,0.3c0.2-0.1,0.4-0.2,0.6-0.4c-0.2-0.1-0.3-0.2-0.3-0.4
			c0.1,0,0.1,0,0.2,0c0.1,0.1,0.1,0,0.2,0.1c-0.1,0.1,0,0,0,0.1c0.5-0.4,1.1-0.2,1.6-0.1c0.1-0.2,0.3-0.2,0.4-0.5
			c-0.2-0.1-0.2-0.1-0.3-0.2c-0.2,0.1-0.4,0.2-0.5,0.3c-0.1-0.1-0.1-0.2-0.2-0.3c0,0,0.1-0.1,0.1-0.1c0.3,0,1.2-0.1,1.4-0.4
			c0.1-0.1,0-0.2,0-0.4c0.4,0.1,0.4,0,0.7-0.1c-0.1-0.3,0-0.2,0.1-0.4c0.4-0.1,0.4-0.2,0.8,0c0.1-0.2,0.3-0.2,0.4-0.4
			c-0.1-0.2,0-0.2-0.2-0.2c0.1-0.1,0.1-0.1,0.2-0.2c0.1,0.1,0.1,0.1,0.1,0.3c0.3-0.2,0.5-0.3,0.8-0.5c-0.1,0-0.2,0-0.3,0
			c0,0,0-0.1,0-0.1c0.1,0,0.1,0,0.2,0c-0.1,0-0.1,0-0.2,0c0,0,0-0.1,0-0.1c0.1-0.1,0.3-0.2,0.4-0.3c0.1,0.1,0.1,0.1,0.3,0.1
			c0,0,0,0,0,0c-0.1-0.1-0.1-0.1-0.2-0.2c0.4-0.1,0.1-0.3,0.3-0.4c0.1-0.2,0.4-0.3,0.6-0.4c0-0.2-0.1-0.3-0.1-0.5c0,0,0,0,0,0
			c0.2,0,0.2,0,0.4,0c0,0,0,0,0,0c-0.1-0.2-0.1-0.4-0.2-0.5c0.7-0.4,1.7-2.4,1.9-3.1c0.1-0.5,0.4-1.3,0.9-1.3
			c-0.3-0.6,0.3-0.8,0-1.4c-0.7,0.1-1.2,0.3-1.8,0.6c-0.5,0.2-1.4-0.2-1.7-0.1c-0.1,0.1,0,0.1-0.2,0.2c0-0.2,0.1-0.1-0.1-0.2
			c-0.2-0.1-0.4,0.1-0.5,0c0-0.1,0-0.1,0-0.2c-0.4,0.2-0.7,0-0.8,0.1c-0.2,0.1-0.1,0.1-0.3,0.1c0-0.1,0-0.2,0-0.3
			c-0.2,0.1-0.2,0.1-0.4,0c0-0.1,0-0.2,0-0.3c0,0-0.1,0-0.1,0c0,0.2,0.1,0.1,0,0.2c0,0,0-0.1,0-0.1c-0.4-0.2-0.4-1.5-0.4-1.9
			c0.1,0,0.5-0.1,0.4-0.4c0.2-0.3,0.5-0.5,0.7-0.8c0-0.2,0.1-0.3,0.1-0.5c0.1,0,0.2-0.1,0.3-0.1c0-0.2,0.1-0.4,0.1-0.6
			c0.1,0,0.2-0.1,0.3-0.1c0.2-0.2,0.1-0.5,0.3-0.8c-0.3-0.1-0.4-0.1-0.7-0.1c-0.1-0.3-0.7-0.2-1,0c-0.7-0.5-2-0.1-2.7-0.8
			c-0.5-0.4-0.6-1.9-0.8-2.3c0.4-0.7,0.9-0.7,1.6-0.8c0,0.1-0.1,0.1-0.1,0.2c-0.1,0.1-0.1,0.1-0.2,0.2c0.1,0.2,0.1,0.3,0.1,0.6
			c0.3,0.1,0.5,0.1,0.8,0.2c1-0.3,3.6-1.3,4.2-1.9c-0.1-0.2,0.6-0.9,0.7-1C47,24.7,48.1,24.9,48.3,24.5z"/>
		<path d="M37.3,25.6c0.4,0.2,0,0.8,0.1,1.1c-0.2,0-0.1-0.1-0.2,0.1c0,0.1,0.1,0.1,0.1,0.2c0.2-0.1,0.1-0.1,0.2,0
			c0,0.1-0.1,0.1-0.1,0.2c-0.2,0-0.1-0.1-0.2,0.1c0.1,0.3,0.1,0.1,0,0.4c0.1,0,0.1,0,0.2,0c-0.1,0.2-0.2,0.1-0.1,0.3
			c0.1,0,0.1,0,0.2,0c-0.1,0.1-0.1,0.1-0.2,0.2c0.1,0,0.1,0,0.2,0c0.1-0.1,0-0.1,0.1-0.1c0,0.3,0.1,0.3-0.1,0.4
			c0.1,0.1,0.1,0.1,0.1,0.3c-0.2,0-0.2,0-0.2,0.2c-0.2,0.2-0.2,0.1-0.1,0.3c0.2,0,0.1,0.1,0.3,0.1c0,0-0.1,0.1-0.1,0.1
			c-0.1,0-0.2,0-0.3,0c0,0.1,0,0.2,0,0.3c0.2,0,0.1,0,0.2,0.1c-0.5,0.5-0.6,1.6-0.7,2.4c-1,0.6-1.7,1.5-2.9,2
			c-1.1-0.3-2.1-0.7-2.9-1.9c0,0-0.3-4-0.4-4.2c0,0,0.1,0,0.1,0c0,0.4,0.1,1.3,0.2,1.5c0.5,0.9,0.2,1.4,1.1,1.9
			c1.9,1.1,4.5-3.1,4.7-4c0.4-0.1,0.5-0.2,0.4-0.6c-0.1-0.1,0,0-0.1-0.1c0.1,0,0.1-0.1,0.2-0.1c-0.1-0.1-0.1-0.2-0.2-0.3
			c0.2,0.1,0.2,0.1,0.4,0c0-0.1,0-0.1,0-0.2c-0.1-0.1-0.1-0.1-0.2-0.2c0.1-0.2,0.2-0.4,0.4-0.5C37.3,25.7,37.3,25.7,37.3,25.6z"/>
		<path d="M37.4,26.7C37.5,26.7,37.5,26.7,37.4,26.7c0.1,0.1,0,0.1,0,0.1C37.4,26.8,37.4,26.7,37.4,26.7z"/>
		<path d="M37.4,27.3C37.5,27.4,37.5,27.4,37.4,27.3c0.1,0.1,0,0.1,0,0.1C37.4,27.4,37.4,27.4,37.4,27.3z"/>
		<path d="M18.5,28.9C18.5,29,18.5,29,18.5,28.9C18.5,29,18.5,29,18.5,28.9z"/>
		<path d="M37.3,29c0,0,0.1,0.1,0.1,0.1C37.4,29.1,37.3,29,37.3,29z"/>
		<path d="M17.3,29.6C17.4,29.6,17.4,29.6,17.3,29.6C17.4,29.6,17.4,29.6,17.3,29.6z"/>
		<path d="M44.3,36.2c0.1,0.1,0,0,0,0.2c0,0-0.1,0-0.1,0C44.2,36.3,44.2,36.2,44.3,36.2z"/>
		<path d="M45.8,42.3C45.8,42.3,45.8,42.4,45.8,42.3C45.8,42.4,45.8,42.3,45.8,42.3z"/>
		<path d="M44.3,44.3C44.4,44.3,44.4,44.3,44.3,44.3C44.4,44.3,44.4,44.3,44.3,44.3z"/>
		<path d="M44.3,44.4C44.3,44.4,44.3,44.4,44.3,44.4C44.3,44.4,44.3,44.4,44.3,44.4z"/>
		<path d="M43.4,44.9c0,0,0.1,0.1,0.1,0.1c0,0,0,0,0,0c-0.2,0-0.2,0.1-0.3,0C43.4,44.9,43.3,45,43.4,44.9z"/>
		<path d="M43.6,44.9C43.6,44.9,43.6,45,43.6,44.9C43.6,45,43.6,44.9,43.6,44.9z"/>
		<path d="M47.3,45.8C47.3,45.8,47.4,45.8,47.3,45.8C47.4,45.8,47.3,45.8,47.3,45.8C47.3,45.8,47.3,45.8,47.3,45.8z"/>
		<path d="M46.9,46.1c0.1,0.1,0.1,0,0.1,0.1C47,46.2,47,46.1,46.9,46.1z"/>
		<path d="M46.2,46.7c0,0.1,0,0,0,0.1C46.2,46.8,46.2,46.7,46.2,46.7z"/>
		<path d="M40.1,47.2C40.2,47.2,40.2,47.2,40.1,47.2c0.1,0,0.1,0.1,0,0.1C40.2,47.3,40.2,47.2,40.1,47.2z"/>
		<path d="M39.6,47.3C39.6,47.3,39.6,47.4,39.6,47.3C39.6,47.4,39.6,47.3,39.6,47.3z"/>
		<path d="M43.5,47.6C43.5,47.6,43.6,47.6,43.5,47.6C43.5,47.6,43.5,47.7,43.5,47.6C43.5,47.7,43.5,47.6,43.5,47.6z"/>
		<path d="M43.3,47.7c0.1,0.1,0.1,0.1,0,0.3C43.3,47.9,43.3,47.9,43.3,47.7C43.2,47.8,43.3,47.7,43.3,47.7z"/>
		<path d="M38.1,47.8C38.1,47.8,38.1,47.8,38.1,47.8C38.1,47.8,38.1,47.8,38.1,47.8z"/>
		<path d="M43.8,47.8C43.8,47.8,43.8,47.8,43.8,47.8C43.8,47.8,43.8,47.8,43.8,47.8z"/>
		<path d="M38.4,48C38.4,48,38.4,48,38.4,48C38.4,48.1,38.5,48,38.4,48C38.4,48.1,38.4,48,38.4,48z"/>
		<path d="M43.3,48C43.4,48,43.4,48,43.3,48c0.1,0,0.1,0.1,0,0.1C43.4,48.1,43.3,48.1,43.3,48z"/>
		<path d="M38.5,48.3C38.5,48.4,38.5,48.4,38.5,48.3C38.5,48.4,38.5,48.4,38.5,48.3z"/>
		<path d="M39.3,48.5C39.3,48.5,39.3,48.5,39.3,48.5C39.3,48.5,39.3,48.5,39.3,48.5z"/>
		<path d="M36.9,48.5c0,0,1.1,0.2,1.3,0.4c0,0-0.1,0-0.1,0c-0.1,0.1-0.1,0.1-0.3,0.1c-0.2-0.1-0.7-0.1-1-0.3
			C36.8,48.6,36.8,48.5,36.9,48.5z"/>
		<path d="M38.6,48.5c0.1,0.1,0.1,0.1,0.2,0.3c-0.2,0,0,0.1-0.2,0.1c-0.2,0-0.1-0.1-0.3,0c0-0.1,0-0.1,0-0.2c0.1,0,0.1-0.1,0.2-0.1
			C38.5,48.7,38.5,48.7,38.6,48.5z"/>
		<path d="M39.4,48.5c0,0,0.1,0.1,0.1,0.1C39.5,48.7,39.4,48.6,39.4,48.5C39.4,48.6,39.4,48.6,39.4,48.5z"/>
		<path d="M38.9,48.9c0.1,0,0.1,0,0.2,0c0,0,0,0.1,0,0.1c0,0-0.1,0.1-0.1,0.1c0,0,0,0,0,0C38.9,48.9,38.9,49,38.9,48.9z"/>
		<path d="M39.1,48.9c0,0,0.1,0,0.1,0c0,0.1,0,0.1,0,0.2c0,0-0.1,0-0.1,0C39.1,48.9,39.1,48.9,39.1,48.9z"/>
		<path d="M39.3,48.9C39.3,48.9,39.4,48.9,39.3,48.9C39.4,48.9,39.3,48.9,39.3,48.9z"/>
	</g>
	<g>
		<path d="M2.4,43H1.5v-2.8H0.2v-0.8h3.5v0.8H2.4V43z"/>
		<path d="M5.8,43v-0.2C5.6,42.9,5.4,43,5.2,43C5.1,43,5,43,5,43c-0.6,0-0.9-0.3-0.9-0.9c0-0.3,0.1-0.5,0.3-0.6
			c0.2-0.1,0.5-0.2,0.8-0.2h0.6v-0.2c0-0.1-0.1-0.2-0.2-0.2c0,0-0.1,0-0.1,0c-0.1,0-0.1,0-0.2,0c-0.1,0-0.2,0.1-0.2,0.2H4.2
			c0-0.6,0.3-1,0.9-1c0.1,0,0.2,0,0.4,0c0.1,0,0.2,0,0.4,0c0.6,0,0.9,0.3,0.9,0.9V43H5.8z M5.2,41.9c-0.1,0-0.1,0-0.2,0
			C5,42,5,42,5,42.1c0,0.1,0.1,0.2,0.2,0.2c0,0,0,0,0,0c0.2,0,0.4,0,0.5-0.1c0.1-0.1,0.1-0.2,0.1-0.3L5.2,41.9L5.2,41.9z"/>
		<path d="M8.3,39.4v0.8H7.4v-0.8H8.3z M8.3,40.4V43H7.4v-2.6H8.3z"/>
		<path d="M9.5,40.2l0.3,1.4l0.4-1.4h0.8l0.4,1.4l0.3-1.4h0.9L11.8,43H11l-0.4-1.5L10.1,43H9.3l-0.6-2.8H9.5z"/>
		<path d="M14.5,43v-0.2c-0.2,0.2-0.4,0.2-0.6,0.2c-0.1,0-0.2,0-0.2,0c-0.6,0-0.9-0.3-0.9-0.9c0-0.3,0.1-0.5,0.3-0.6
			c0.2-0.1,0.5-0.2,0.8-0.2h0.6v-0.2c0-0.1-0.1-0.2-0.2-0.2c0,0-0.1,0-0.1,0c-0.1,0-0.1,0-0.2,0c-0.1,0-0.2,0.1-0.2,0.2h-0.9
			c0-0.6,0.3-1,0.9-1c0.1,0,0.2,0,0.4,0c0.1,0,0.2,0,0.4,0c0.6,0,0.9,0.3,0.9,0.9V43H14.5z M13.9,41.9c-0.1,0-0.1,0-0.2,0
			c0,0-0.1,0.1-0.1,0.1c0,0.1,0.1,0.2,0.2,0.2c0,0,0,0,0,0c0.2,0,0.4,0,0.5-0.1c0.1-0.1,0.1-0.2,0.1-0.3
			C14.5,41.9,13.9,41.9,13.9,41.9z"/>
		<path d="M16.9,40.2v0.3c0.2-0.2,0.4-0.3,0.6-0.3c0.1,0,0.3,0,0.4,0c0.5,0,0.7,0.3,0.7,0.8c0,0.1,0,0.2,0,0.4V43h-0.9v-1.7
			c0-0.1,0-0.1,0-0.2c0-0.2-0.1-0.2-0.2-0.2c-0.1,0-0.1,0-0.2,0c-0.1,0-0.1,0-0.2,0c-0.1,0-0.2,0.1-0.2,0.2V43h-0.9v-2.8
			C15.9,40.2,16.9,40.2,16.9,40.2z"/>
		<path d="M21.2,43v-3.7h2.1c0.2,0,0.3,0,0.5,0c0.6,0,0.9,0.3,0.9,0.9c0,0.1,0,0.2,0,0.2c0,0.3-0.1,0.5-0.3,0.7
			c0.2,0.2,0.4,0.4,0.4,0.7c0,0.1,0,0.2,0,0.2c0,0.6-0.3,0.9-0.9,0.9c-0.1,0-0.3,0-0.5,0h-1.1L21.2,43L21.2,43z M22.1,40.2v0.5h1.1
			c0,0,0.1,0,0.1,0c0.2,0,0.3-0.1,0.3-0.3c0-0.2-0.1-0.3-0.3-0.3c0,0-0.1,0-0.1,0L22.1,40.2L22.1,40.2z M22.1,41.6v0.6h1.1
			c0.1,0,0.1,0,0.1,0c0.2,0,0.3-0.1,0.3-0.3c0-0.2-0.1-0.3-0.3-0.3c0,0-0.1,0-0.1,0c0,0,0,0,0,0L22.1,41.6L22.1,41.6z"/>
		<path d="M26.1,39.4v0.8h-0.9v-0.8H26.1z M26.1,40.4V43h-0.9v-2.6H26.1z"/>
		<path d="M28.1,40.2c0.2,0,0.4,0,0.6,0c0.6,0,0.9,0.3,0.9,0.8c0,0.2,0,0.4,0,0.6c0,0.2,0,0.4,0,0.6c0,0.6-0.3,0.9-0.9,0.9
			c-0.2,0-0.4,0-0.6,0c-0.2,0-0.4,0-0.6,0c-0.6,0-0.9-0.3-0.9-0.9c0-0.2,0-0.4,0-0.6c0-0.2,0-0.4,0-0.6c0-0.6,0.3-0.8,0.9-0.8
			C27.7,40.2,27.9,40.2,28.1,40.2z M27.9,42.2c0.1,0,0.1,0,0.2,0c0.1,0,0.1,0,0.2,0c0.2,0,0.3-0.1,0.3-0.4c0-0.1,0-0.2,0-0.2
			s0-0.2,0-0.2c0-0.2-0.1-0.4-0.3-0.4c-0.1,0-0.1,0-0.2,0c-0.1,0-0.1,0-0.2,0c-0.2,0-0.3,0.1-0.3,0.4c0,0.1,0,0.2,0,0.2
			c0,0.1,0,0.2,0,0.2C27.6,42.1,27.7,42.2,27.9,42.2z"/>
		<path d="M31.1,39.4v1.1c0.2-0.2,0.4-0.2,0.5-0.2c0.1,0,0.3,0,0.4,0c0.4,0,0.6,0.3,0.6,0.8c0,0.2,0,0.4,0,0.6c0,0.2,0,0.4,0,0.6
			c0,0.6-0.2,0.9-0.6,0.9c-0.1,0-0.3,0-0.4,0s-0.3-0.1-0.5-0.3V43h-0.9v-3.7H31.1z M31.1,41.9c0,0.2,0.1,0.3,0.2,0.3
			c0,0,0.1,0,0.1,0c0,0,0.1,0,0.1,0c0.1,0,0.2-0.1,0.2-0.4c0-0.1,0-0.2,0-0.3c0-0.1,0-0.2,0-0.2c0-0.2-0.1-0.4-0.2-0.4
			c0,0-0.1,0-0.1,0c0,0-0.1,0-0.1,0c-0.1,0-0.2,0.1-0.2,0.3c0,0,0,0.1,0,0.1c0,0.1,0,0.2,0,0.2C31.1,41.7,31.1,41.8,31.1,41.9
			C31.1,41.9,31.1,41.9,31.1,41.9z"/>
		<path d="M34.8,43v-0.2c-0.2,0.2-0.4,0.2-0.6,0.2c-0.1,0-0.2,0-0.2,0c-0.6,0-0.9-0.3-0.9-0.9c0-0.3,0.1-0.5,0.3-0.6
			c0.2-0.1,0.5-0.2,0.8-0.2h0.6v-0.2c0-0.1-0.1-0.2-0.2-0.2c0,0-0.1,0-0.1,0c-0.1,0-0.1,0-0.2,0c-0.1,0-0.2,0.1-0.2,0.2h-0.9
			c0-0.6,0.3-1,0.9-1c0.1,0,0.2,0,0.4,0c0.1,0,0.2,0,0.4,0c0.6,0,0.9,0.3,0.9,0.9V43H34.8z M34.2,41.9c-0.1,0-0.1,0-0.2,0
			c0,0-0.1,0.1-0.1,0.1c0,0.1,0.1,0.2,0.2,0.2c0,0,0,0,0,0c0.2,0,0.4,0,0.5-0.1c0.1-0.1,0.1-0.2,0.1-0.3
			C34.8,41.9,34.2,41.9,34.2,41.9z"/>
		<path d="M37.2,40.2v0.3c0.2-0.2,0.4-0.3,0.6-0.3c0.1,0,0.3,0,0.4,0c0.5,0,0.7,0.3,0.7,0.8c0,0.1,0,0.2,0,0.4V43h-0.9v-1.7
			c0-0.1,0-0.1,0-0.2c0-0.2-0.1-0.2-0.2-0.2c-0.1,0-0.1,0-0.2,0c-0.1,0-0.1,0-0.2,0c-0.1,0-0.2,0.1-0.2,0.2V43h-0.9v-2.8
			C36.3,40.2,37.2,40.2,37.2,40.2z"/>
		<path d="M41.1,43l-0.7-1.3V43h-0.9v-3.7h0.9v1.8l0.6-0.9h1l-0.8,1.2l0.9,1.6L41.1,43L41.1,43z"/>
	</g>
</g>
</svg>
