<?xml version="1.0" encoding="utf-8"?>
<!-- Generator: Adobe Illustrator 24.2.3, SVG Export Plug-In . SVG Version: 6.00 Build 0)  -->
<svg version="1.1" id="圖層_1" xmlns="http://www.w3.org/2000/svg" xmlns:xlink="http://www.w3.org/1999/xlink" x="0px" y="0px"
	 viewBox="0 0 461.3 75.4" style="enable-background:new 0 0 461.3 75.4;" xml:space="preserve">
<style type="text/css">
	.st0{fill:#231815;}
	.st1{fill:#B99868;}
	.st2{fill:#CA1F22;}
	.st3{fill:#221E1F;}
	.st4{fill:#C63529;}
	.st5{fill:#FFFFFF;}
	.st6{fill:none;}
</style>
<g>
	<g>
		<g>
			<g>
				<g>
					<g>
						<g>
							<path class="st1" d="M192.9,12.8c0.7,0.3,2.2,0.8,3.4,0.8c0.8,0,1.1-0.2,1.1-0.5c0-0.3-0.4-0.6-1.3-1
								c-1.3-0.5-2.7-1.3-2.7-2.8c0-2.3,2.2-3.7,5.3-3.7c1.5,0,2.6,0.3,3.2,0.6l-0.9,2.5c-0.5-0.2-1.4-0.5-2.6-0.5
								c-0.7,0-1.1,0.2-1.1,0.5c0,0.2,0.4,0.6,1.4,0.9c1.1,0.4,2.8,1.1,2.8,2.8c0,2.4-2.3,3.7-5.5,3.7c-1.6,0-3.1-0.4-3.9-0.9
								L192.9,12.8z"/>
							<path class="st1" d="M175.6,5.7c-2.7,0-4.7,0.7-5.5,1.1l0.2,2.3c1.1-0.5,2.7-0.9,4-0.9c1.5,0,1.8,0.4,1.7,0.8l-0.1,0.3
								c-1.6-0.1-3-0.1-4.2,0.4c-1.8,0.6-3,1.7-3.3,3.2c-0.3,1.4,0.5,2.6,2,3c1.7,0.5,3.5,0.3,5.2,0c1.5-0.3,3.3-0.1,3.3-0.1
								c0-0.5,0.1-1.4,0.4-2.4l0.8-3.4C180.5,7.6,179.5,5.7,175.6,5.7z M172.4,12c0.6-0.6,1.6-0.8,3.1-0.7c0,0-0.3,1.2-0.5,2.2
								c-1.1,0.3-2.4,0.5-2.8,0C171.8,13.2,171.8,12.6,172.4,12z"/>
							<path class="st1" d="M188.7,6c-1.1,0-2.1,0.3-2.9,0.8l0.9-4.5h-4.3l-1.9,9.4c-0.1,0.6-0.2,1.2-0.2,1.8c0,1.8,1.3,3.1,4.3,3.1
								c5.4,0,7.5-3.8,7.5-6.9C192.2,7.5,190.9,6,188.7,6z M185.4,13.8c-0.6,0-1-0.3-1.1-1c0-0.4,0-0.8,0.1-1.1l0-0.3
								c0.3-1.7,1.4-2.6,2.4-2.6c0.8,0,1.3,0.6,1.3,1.5C188.2,12,186.9,13.8,185.4,13.8z"/>
							<path class="st1" d="M164.4,12.7l2.1-10.5h-4.8c0,0-2.1,10.7-2.3,11.7c-0.2,0.9,0.2,2.1,1.8,2.1c1.5,0,2.7,0,2.7,0h3.2
								l0.7-3.3H164.4z"/>
						</g>
						<g>
							<path class="st2" d="M157.6,5.5c-0.3-2.7-2.7-3.3-5.4-3.3c-2.7,0-3.5,0-3.5,0h-2.2L143.8,16h0.2h3.8h0.3l2.3-11.4
								c1.1,0,1.7,0,2.4,0.2c0.7,0.2,1,0.8,0.9,1.7c-0.2,1.3-1.4,2.2-3.4,2.5c0.6,0.5,1.2,2,1.4,3.7c0.2,1.7,0.5,3,0.6,3.4h4.1
								c-0.4-0.8-0.6-2.7-0.8-4.1c-0.2-1.1-0.4-1.8-1.3-2.3l0-0.1C156.2,9.3,157.8,7.6,157.6,5.5z"/>
							<path class="st2" d="M138.9,16h4.3l-1-13.8h-6.5L128.7,16h4l1.7-3.5h4.2L138.9,16z M135.9,9.7l2.2-4.4l0.3,4.4H135.9z"/>
							<polygon class="st2" points="126.2,2.2 124.6,10.3 121.9,2.2 121.2,2.2 118.2,2.2 116.5,2.2 113.8,16 118.5,16 120.1,7.9 
								122.8,16 123.5,16 126.5,16 128.2,16 130.9,2.2 							"/>
						</g>
					</g>
				</g>
			</g>
		</g>
		<g>
			<g>
				<path class="st3" d="M234,2.5h-11.4l0,11.9c0,0.7,0.2,1.6,1.8,1.6h9.5c1.2,0,1.8-0.5,1.8-1.6l0-10.2
					C235.8,3.4,235.6,2.5,234,2.5z M234,14.5c0,0.6-0.2,0.7-0.7,0.7h-8.2c-0.6,0-0.7-0.2-0.7-0.7V4c0-0.4,0-0.6,0-0.7h8.9
					c0.6,0,0.7,0.2,0.7,0.7V14.5z"/>
				<path class="st3" d="M232,9.4c0.8-0.1,0.9-0.7,0.9-1.1V7.1c0-0.8-0.4-1.1-1.3-1.1H230V5.4h3.1c0.5,0,0.5-0.3,0.5-0.4
					c0-0.3-0.2-0.4-0.5-0.4H230V3.8h-1.7v0.1c0,0,0,0.5,0,0.7H225v0.8h3.4v0.5h-2.8l0,0.1c0,0,0,0.3,0,1v1.3c0,0.8,0.4,1.1,1.3,1.1
					h1.5v0.6H225v0.8h6.9c0.1,0.2,0.2,0.4,0.4,0.6l0,0l1.4,0l-0.3-0.4C232.9,10.5,232.4,9.8,232,9.4z M228.4,8.7h-0.9
					c-0.4,0-0.4,0-0.4-0.4V8.1h1.4V8.7z M228.4,7.3H227c0-0.3,0-0.4,0-0.5h1.4V7.3z M230,10.1V9.5h1.1c0,0.1,0,0.1,0,0.2
					c0,0.2,0.1,0.3,0.2,0.5H230z M231.4,8.2c0,0.4,0,0.4-0.4,0.4H230V8.1h1.4V8.2z M230,7.3V6.8h0.9c0.4,0,0.4,0,0.4,0.5H230z"/>
				<path class="st3" d="M233.1,11.9h-1.3v-0.6l-1.7,0l0,0.1c0,0,0,0.3,0,0.5H225v0.8h1.1c0.4,0.9,1,1.6,1.7,1.9
					c0.1,0,0.2,0.1,0.3,0.1c0.1,0,0.2,0,0.3-0.1c0.1-0.1,0.1-0.2,0.1-0.3c0-0.2-0.2-0.4-0.3-0.6c-0.2-0.2-0.4-0.6-0.6-1h2.7v0.8
					c0,0.4,0,0.4-0.4,0.4h-0.6c-0.5,0-0.5,0.3-0.5,0.4c0,0.1,0.1,0.4,0.5,0.4h1.4c0.9,0,1.3-0.3,1.3-1.1v-1h1.3
					c0.3,0,0.5-0.2,0.5-0.4C233.6,12,233.4,11.9,233.1,11.9z"/>
			</g>
			<path class="st3" d="M265.4,15.1L265.4,15.1c-2.5-1.1-3.8-2.9-4.2-3.7c-0.9-1.5-1.3-3.8-1.3-5.2v-4H258v3.5
				c0,3.3-0.8,4.8-1.1,5.3c-1.2,2.2-3,3.4-4.4,4.1l0,0c-0.3,0.1-0.5,0.2-0.5,0.5c0,0.3,0.2,0.4,0.4,0.4c0.3,0,4.7-1.5,6.4-5.5
				c1.6,4.2,6.3,5.5,6.4,5.5c0.2,0,0.4-0.2,0.4-0.4C265.8,15.3,265.6,15.2,265.4,15.1z"/>
			<g>
				<path class="st3" d="M216.9,6.8c-0.4,0-1.2,0-1.9,0c0,1-0.2,2.3-0.4,3.5c-0.3,1.4-0.8,2.4-1.2,3.1c-0.2,0.3-0.3,0.5-0.2,0.7
					c0.1,0.1,0.2,0.2,0.3,0.2c0.1,0,0.2,0,0.3-0.1c0.6-0.5,1.4-1.5,2-2.9C216.3,10,216.7,8.5,216.9,6.8z"/>
				<path class="st3" d="M220.3,5.1h-0.7V2.3h-1.7v2.8h-4.7V6h4.7v8.6c0,0.5-0.1,0.6-0.6,0.6h-1.2c-0.5,0-0.5,0.3-0.5,0.4
					c0,0.3,0.3,0.4,0.5,0.4h1.9c0.8,0,1.7-0.2,1.7-1.5V6h0.7c0.3,0,0.5-0.2,0.5-0.4C220.8,5.3,220.6,5.1,220.3,5.1z"/>
				<path class="st3" d="M212.4,15.1L212.4,15.1c-0.4-0.5-0.7-1.1-0.8-2.3c0.6-0.1,0.9-0.3,0.9-1v-8c0-0.9-0.4-1.3-1.4-1.3h-3.9
					l0,0.1c0,0,0,0.3,0,1.2v8c0,0.7,0.3,0.9,0.9,1c0,1.2-0.4,1.8-0.7,2.2l0,0c-0.1,0.1-0.2,0.3-0.3,0.5c0,0.2,0,0.3,0.1,0.4
					c0.1,0.1,0.3,0.1,0.6,0c0.4-0.2,0.7-0.5,1-0.9c0.3-0.5,0.7-1.1,0.8-2.2h0.7c0.2,1.1,0.5,1.8,0.8,2.2c0.3,0.5,0.7,0.8,1,0.9
					c0.3,0.1,0.5,0.1,0.6,0c0.1-0.1,0.2-0.3,0.1-0.4C212.7,15.3,212.5,15.2,212.4,15.1z M208.9,11.6c0,0,0-0.8,0-1.8h2v1.8
					c0,0.4,0,0.5-0.5,0.5h-1C208.9,12.1,208.9,12,208.9,11.6z M210.9,8.9h-2c0-0.7,0-1.6,0-2.3h2V8.9z M210.4,3.4
					c0.5,0,0.5,0.1,0.5,0.5v1.8h-2c0-1.3,0-2.3,0-2.3H210.4z"/>
			</g>
			<g>
				<path class="st3" d="M239,4.1c0.3,0.4,0.6,1,0.8,1.6l0,0.1l1.7,0l-0.1-0.2c-0.6-1.3-1.3-2.2-2.2-2.7c-0.3-0.1-0.5-0.1-0.7,0.1
					c-0.1,0.1-0.1,0.2-0.1,0.4C238.6,3.6,238.8,3.9,239,4.1z"/>
				<path class="st3" d="M238.4,7.6c0.3,0.4,0.6,1,0.8,1.6l0,0.1l1.7,0l-0.1-0.2c-0.6-1.3-1.3-2.2-2.2-2.7c-0.3-0.1-0.5-0.1-0.7,0.1
					c-0.1,0.1-0.1,0.2-0.1,0.4C238,7.2,238.2,7.5,238.4,7.6z"/>
				<path class="st3" d="M241,10.1c-0.2,0.1-0.2,0.2-0.2,0.4c0,0,0,0.1,0,0.1c-0.3,1.3-1.8,3.8-3.1,5.2l-0.2,0.2l2.3,0l0,0
					c1.7-2.6,2.2-5.3,1.9-5.7C241.5,10,241.2,10,241,10.1z"/>
				<path class="st3" d="M251,14.7l-1.2-1.8c0,0-0.1-0.1-0.1-0.2c-0.2-0.3-0.6-0.9-1.1-0.9c-0.1,0-0.1,0-0.2,0
					c-0.1,0-0.2,0.1-0.2,0.2c-0.1,0.3,0.2,0.8,0.2,0.9l0.9,1.8c0.1,0.1,0.1,0.2,0,0.3c-0.1,0.1-0.3,0.2-0.6,0.2h-2.4h-1.5
					c-0.3,0-0.5-0.1-0.5-0.2c0-0.1,0-0.2,0-0.3l2.9-5.3h3.2c0.5,0,0.5-0.3,0.5-0.4c0-0.1-0.1-0.4-0.5-0.4h-3.1V5.8h2.7
					c0.5,0,0.5-0.3,0.5-0.4c0-0.1-0.1-0.4-0.5-0.4h-2.7V2.3h-1.8v2.6h-3.2v0.9h3.2v2.7h-3.6v0.9h3.4l-2.7,5.1
					c-0.2,0.4-0.1,0.8,0.1,1.1c0.2,0.2,0.5,0.5,1.2,0.5h2.3h3.4h0.1l0,0c0.6,0,1-0.2,1.2-0.4C251.2,15.3,251.1,15,251,14.7z"/>
			</g>
			<g>
				<g>
					<g>
						<path class="st3" d="M322.6,3.6h1.1c0.2,0,0.3,0.1,0.5,0.5c0.5,2.2,2.4,2.5,2.4,2.5c0,0,0.1,0,0.1,0c0.1,0,0.2,0,0.3-0.1
							c0.1,0,0.2-0.1,0.2-0.3c0-0.3-0.4-0.5-0.5-0.5c-1-0.5-1.2-1.6-1.2-1.7c0-0.8-0.5-1.2-1.2-1.2c0,0-2.6,0-3,0
							c0,1.9-0.7,2.6-1.5,3c0,0.3,0,0.5,0,0.7C321.7,6.1,322.4,5,322.6,3.6z"/>
						<path class="st3" d="M325.5,6.8c0-0.3-0.2-0.4-0.5-0.4h-3.6v0.9h3.6C325.3,7.2,325.5,7.1,325.5,6.8z"/>
						<path class="st3" d="M323.1,14.8c0.1-0.1,0.1-0.4-0.1-0.5c-0.3-0.4-0.6-0.4-0.6-1c0-0.6,0-1.1,0-1.1H321c0,0,0,0.4,0,0.8
							c0,0.4-0.1,0.4-0.3,0.8c-0.2,0.4-0.7,1-1.1,1.3c-0.1,0.1-0.2,0.2-0.2,0.3c0,0.2,0.1,0.4,0.4,0.4c0.3,0,1.1-0.6,1.9-1.5
							c0.3,0.4,0.7,0.6,1,0.7C322.8,15,323,15,323.1,14.8z"/>
						<path class="st3" d="M314.5,11.4c-0.1-0.1-0.3-0.2-0.4-0.1c-0.1,0.1-0.1,0.1-0.1,0.3l0,0.1c0,0.6-0.3,1.7-0.8,2.4l-0.1,0.2
							l0.2,0c0,0,0.4,0,0.7,0c0.3,0,0.3,0,0.3-0.1C314.8,12.9,314.7,11.7,314.5,11.4z"/>
						<path class="st3" d="M315.7,14.2c0.2-1.3,0-2.6-0.3-2.9c-0.1-0.1-0.3-0.1-0.4,0c-0.1,0.1-0.1,0.2-0.1,0.3l0,0.1
							c0.1,0.6,0,1.6-0.3,2.4l0,0.1L315.7,14.2L315.7,14.2z"/>
						<path class="st3" d="M316,14.3l1.1,0l0-0.1c0.1-1.4-0.4-2.7-0.7-2.8c-0.2-0.1-0.3,0-0.4,0.1c-0.1,0.1,0,0.2,0,0.3l0,0.1
							c0.2,0.5,0.2,1.5,0.1,2.4L316,14.3z"/>
						<path class="st3" d="M327.3,15c-0.3-0.3-0.8-0.7-1-1.2S326,13.4,326,13c0-0.4,0-0.8,0-0.8v-0.1h-1.5c0,0,0,0.6,0,0.9
							c0,0.3,0,0.2-0.2,0.7c-0.2,0.4-0.8,1-1.2,1.4c-0.1,0.1-0.2,0.2-0.2,0.3c0,0.2,0.1,0.4,0.4,0.4c0.2,0,0.8-0.3,1.5-1
							c0.1-0.1,0.3-0.3,0.4-0.4c0.1,0.1,0.2,0.3,0.3,0.4c0.6,0.7,1.2,1,1.5,1c0.3,0,0.4-0.2,0.4-0.4C327.4,15.2,327.3,15.1,327.3,15
							z"/>
						<path class="st3" d="M319.5,10.9c0-0.1,0-0.1,0-0.2c0-0.7-0.5-1.1-1.3-1.1h-0.1V8.3h0.8c0.3,0,0.5-0.2,0.5-0.4
							c0-0.3-0.2-0.5-0.5-0.5h-0.8V6h0.8c0.3,0,0.5-0.2,0.5-0.5c0-0.3-0.2-0.5-0.5-0.5h-0.8V3.7h1c0.3,0,0.5-0.2,0.5-0.4
							c0-0.1-0.1-0.4-0.5-0.4h-5c0,0,0,0.2,0,1v5.5c0,0.7,0.2,1.4,1.4,1.4h2.1c0.2,0,0.3,0,0.3,0.3c0,0.4,0,1.1,0.1,1.6
							c-0.3-0.7-0.6-1.1-0.8-1.2c-0.2,0-0.3,0-0.3,0.1c-0.1,0.1,0,0.2,0,0.3l0,0.1c0.3,0.5,0.5,1.5,0.5,2.4l0,0.1l0.5,0
							c-0.1,0.7-0.4,0.7-0.8,0.7h-1c-0.2,0-0.5,0.1-0.5,0.4c0,0.3,0.3,0.5,0.5,0.5h1.4c0.8,0,1.5-0.1,1.8-1.8
							C319.5,13.3,319.5,11.5,319.5,10.9z M316.6,9.7h-0.5c-0.4,0-0.5-0.1-0.5-0.5c0,0,0-0.4,0-0.9h1V9.7z M316.6,5.1h-1V6h1v1.4h-1
							c0-1.5,0-3.7,0-3.7h1V5.1z"/>
						<path class="st3" d="M324.8,11.7h0.8c0.8,0,1.2-0.4,1.2-1.2V8.9c0-0.8-0.4-1.1-1.2-1.1h-1.9l0,2.8
							C323.7,11.3,324,11.7,324.8,11.7z M324.9,8.7h0.4c0.1,0,0.2,0,0.2,0.2v1.8c0,0.2,0,0.2-0.4,0.2c-0.1,0-0.2,0-0.2-0.2V8.7z"/>
						<path class="st3" d="M320.2,7.8L320.2,7.8l0,2.8c0,0.8,0.4,1.2,1.2,1.2h0.7c0.8,0,1.2-0.4,1.2-1.2V8.9c0-0.8-0.4-1.1-1.2-1.1
							H320.2z M322,10.6c0,0.2,0,0.2-0.4,0.2c-0.1,0-0.2,0-0.2-0.2v-2h0.4c0.1,0,0.2,0,0.2,0.2V10.6z"/>
					</g>
					<g>
						<path class="st3" d="M295.5,14.4c-0.1-0.1-0.2-0.2-0.3-0.2c-0.8-0.6-2-1.6-2.7-3.9c1.6-0.6,2.4-1.7,2.5-2.5l0-0.1h-1.9l0,0.1
							c-0.1,0.5-0.3,1.2-0.9,1.5c-0.1-0.7-0.3-2-0.3-2.8h1.1c0.3,0,0.5-0.2,0.5-0.5c0-0.3-0.2-0.5-0.5-0.5h-7.9v0.9h2.1
							c-0.4,0.5-1.2,1.7-3.5,2.7c-0.1,0.1-0.4,0.2-0.4,0.5c0,0.3,0.2,0.5,0.4,0.5c0.2,0,0.9-0.3,1.5-0.5c0.7-0.3,1.8-1,2.7-1.7
							c0.1,0.1,0.2,0.2,0.3,0.4c-1.7,2-4,3.1-4.8,3.4c-0.3,0.1-0.4,0.2-0.4,0.5c0,0.3,0.2,0.5,0.4,0.5c0.3,0,3.3-1,5.4-2.8
							c0.1,0.1,0.1,0.3,0.1,0.5v0c-1.6,1.8-3.6,3.1-5.9,3.9c-0.1,0.1-0.4,0.2-0.4,0.5c0,0.3,0.2,0.5,0.4,0.5c0.2,0,3.5-0.9,6.2-3
							c0.1,1.2-0.1,2.3-0.5,2.7c-0.2,0.2-0.5,0.2-0.8,0.2h-1.1c-0.3,0-0.5,0.2-0.5,0.5c0,0.3,0.3,0.5,0.5,0.5h2.1c1.3,0,2-1.1,2-3.1
							c0-2.4-0.8-4.3-2.3-5.6c0.4-0.3,0.5-0.5,0.8-0.8h0.7c0.4,3.7,1.5,5.7,2.6,6.9c0.8,1,2,1.7,2.6,1.9c0.2,0.1,0.4-0.2,0.4-0.5
							C295.7,14.6,295.6,14.5,295.5,14.4z"/>
					</g>
					<g>
						<path class="st3" d="M270.6,11.5h1.6c0.6,0,1.1-0.1,1.1-0.9V8.2c0-0.8-0.6-0.9-1.1-0.9h-2.8l0,0.1c0,0,0,0.2,0,0.8v2.4
							C269.4,11.4,270,11.5,270.6,11.5z M270.8,8.5l0-0.4h0.8c0.3,0,0.4,0,0.4,0.4v1.8c0,0.3,0,0.4-0.4,0.4h-0.4
							c-0.3,0-0.4-0.1-0.4-0.4V8.5z"/>
						<path class="st3" d="M278.3,2.5h-11.3v11.8c0,0.8,0.2,1.6,1.8,1.6h9.4c1.2,0,1.8-0.5,1.8-1.6V4.1C280.2,3.4,280,2.5,278.3,2.5
							z M278.4,14.4c0,0.5-0.2,0.6-0.7,0.6h-8.2c-0.6,0-0.7-0.2-0.7-0.6V4.5l0-1.2l8.8,0c0.5,0,0.7,0.2,0.7,0.7V14.4z"/>
						<path class="st3" d="M273.3,12.6c0-0.3-0.2-0.4-0.5-0.4h-3.4V13h3.4C273.1,13,273.3,12.9,273.3,12.6z"/>
						<path class="st3" d="M276.4,7.5c-0.1,0.8-0.4,1.9-0.9,2.9c-0.1-0.7-0.3-2.5-0.3-4.1h2.2c0.3,0,0.5-0.2,0.5-0.4
							c0-0.3-0.3-0.4-0.5-0.4h-0.1c-0.2-0.6-0.6-1-1-1.3c-0.1,0-0.2,0-0.2,0c-0.2,0-0.4,0.1-0.4,0.4c0,0.1,0.1,0.3,0.1,0.4
							c0,0,0,0,0,0.1c0.1,0.2,0.1,0.3,0.2,0.5h-0.9l0-1.4l-1.7,0v1.4h-4.3v0.9h4.3c0.1,2.6,0.3,3.9,0.9,5.6c-0.5,0.9-1.4,1.6-2,2
							l-0.1,0c-0.1,0.1-0.3,0.2-0.3,0.4c0,0.3,0.2,0.4,0.4,0.4c0.3,0,1.6-0.8,2.5-1.7c0.2,0.4,0.4,0.6,0.6,1
							c0.4,0.5,0.8,0.8,1.5,0.8h0.3c0.5,0,0.5-0.3,0.5-0.4c0-0.1-0.1-0.4-0.5-0.4h-0.2c-0.3,0-0.6-0.3-0.8-0.7c0,0-0.3-0.5-0.5-1.1
							c1-1.2,1.8-2.9,2.1-4.5l0-0.1L276.4,7.5L276.4,7.5z"/>
					</g>
					<g>
						<path class="st3" d="M370.7,7c0-0.3-0.2-0.4-0.5-0.4h-3.7v0.9h3.7C370.5,7.5,370.7,7.3,370.7,7z"/>
						<path class="st3" d="M362.7,7.8c0.1-0.2,1.1-3.1,1.2-3.3c0.1-0.2,0.2-0.6,0.2-0.8c0-0.3-0.2-0.8-1-0.8h-3.6l0,12
							c0,0.3-0.1,1.1,0.7,1.1c0.8,0,0.8-0.8,0.8-1.1V4.2c0-0.3,0-0.4,0-0.5h1.3c0.1,0,0,0,0,0.1c0,0,0,0.1,0,0.2c0,0.1-1,3-1,3.1
							c0,0.1-0.1,0.4-0.1,0.5c0,0.2,0,0.3,0.1,0.5c0.2,0.3,0.8,0.7,1.1,1.3c0.5,1,0.5,2.1-0.7,2.4c-0.2,0.1-0.5,0.3-0.5,0.6
							c0,0.3,0.2,0.5,0.5,0.6c0.4,0,0.9-0.2,1.1-0.3c0.5-0.3,1.2-1,1.2-2C364.1,9,362.7,7.8,362.7,7.8z"/>
						<path class="st3" d="M372.1,9.9c0.5,0,0.5-0.3,0.5-0.4c0-0.3-0.2-0.4-0.7-0.4h-7.5v0.9h1.5c0,1.4,0,2.2-0.5,3.4
							c-0.5,1.1-1.7,1.8-1.8,1.9c-0.2,0.1-0.3,0.2-0.3,0.4c0,0.3,0.2,0.4,0.4,0.4c0.3,0,1.3-0.3,2.4-1.4c1.1-1.2,1.4-2.7,1.4-4.6
							h1.2v4.5c0,1.3,0.8,1.5,1.6,1.5h1.7c0.2,0,0.5-0.1,0.5-0.4c0-0.2-0.1-0.4-0.5-0.4h-1c-0.5,0-0.6-0.1-0.6-0.6l0-4.5H372.1z"/>
						<path class="st3" d="M371.1,4h-1.7V2.2h-1.7V4h-3.2v2.6h1.6V5.4c0-0.3,0-0.4,0-0.5h4.1c0.5,0,0.8,0.1,0.8,0.5v0.3
							c0,0.3,0,1.1,0.8,1.1c0.8,0,0.8-0.7,0.8-1.1V5.4C372.6,4.4,372.2,4,371.1,4z"/>
					</g>
					<g>
						<path class="st3" d="M346.2,4.4h2.2c-0.1,0.6-0.4,1.3-0.8,1.9c-0.3,0.5-0.7,0.8-1.2,1.1c-0.5,0.3-0.7,0.3-0.6,0.5
							c0,0.2,0.3,0.2,0.4,0.2c0.6,0,1.4-0.3,2.2-1c1-0.8,1.5-2,1.6-2.8h1.8v2.5c0,0.6,0.2,1.2,1.5,1.2h2.4c0.5,0,0.5-0.3,0.5-0.3
							c0-0.1,0-0.3-0.1-0.4c-0.1-0.1-0.3-0.2-0.6-0.2H354c-0.5,0-0.5-0.1-0.5-0.5V4.4h1.6c0.5,0,0.6,0.1,0.6,0.5v0.7
							c0,0-0.1,0.8,0.6,1c0.1,0,0.2,0,0.3,0c0.4,0,0.9-0.2,0.9-1V4.9c0-1.2-0.8-1.4-1.7-1.4h-4V2.2H350v1.3h-5.6v3.1h1.8
							C346.2,6.7,346.2,4.5,346.2,4.4z"/>
						<path class="st3" d="M356.7,15h-1.1c-0.5,0-0.6-0.1-0.6-0.6c0,0,0-3.5,0-3.7c0-0.2-0.1-0.5-0.3-0.7c-0.2-0.2-0.6-0.3-1.1-0.3
							h-3c0.1-0.7,0.2-1.3,0.2-1.9c0,0-1.1,0-1.9,0c0,0.7-0.1,1.3-0.1,1.9h-3.7v0.9h3.5c-0.2,0.8-0.5,1.6-1,2.2
							c-0.7,1-1.6,1.7-2.7,2.2c-0.1,0.1-0.5,0.2-0.5,0.5c0,0.2,0.2,0.4,0.5,0.4c0.3,0,2.2-0.5,3.9-2.3c0.8-0.9,1.3-2,1.6-3h2.5
							c0.2,0,0.3,0.1,0.3,0.2v3.6c0,1.4,0.8,1.5,1.7,1.5h1.8c0.2,0,0.5-0.1,0.5-0.5C357.3,15.3,357.2,15,356.7,15z"/>
					</g>
					<g>
						<path class="st3" d="M342.3,7.8h-0.8V3.7h0.6c0.3,0,0.5-0.2,0.5-0.4s-0.2-0.5-0.5-0.5h-6.5v0.9h0.9v4.2h-1.3v0.9h1.3
							c0,1.6-0.1,2.9-0.4,3.9c-0.3,0.8-0.6,1.5-1.1,2.1c-0.4,0.4-0.5,0.5-0.5,0.7c0,0.2,0.1,0.5,0.4,0.5c0.2,0,0.5-0.2,0.9-0.4
							c0.4-0.3,1-1,1.5-1.7c0.5-0.9,0.9-2.1,1-5.1h1.5v6.2c0,0.9,0.5,1.1,0.9,1.1s0.9-0.2,0.9-1.1V8.7h0.8c0.3,0,0.5-0.2,0.5-0.4
							C342.8,7.9,342.5,7.8,342.3,7.8z M339.7,7.8h-1.5V3.7h1.5V7.8z"/>
						<path class="st3" d="M334.7,13.4V8.5c0-0.9-0.4-1.3-1.4-1.3h-1.4c0.3-0.9,0.7-2.4,0.8-3.5l1.7,0c0.3,0,0.5-0.2,0.5-0.4
							c0-0.3-0.2-0.5-0.5-0.5h-5v0.9h1.3c-0.1,3.6-1,5.4-1.8,7.1c-0.1,0.3-0.3,0.5-0.2,0.7c0.1,0.1,0.2,0.2,0.4,0.2
							c0.1,0,0.6-0.1,1.3-1.1v2.9c0,0.9,0.4,1.3,1.4,1.3h1.5C334.3,14.7,334.7,14.3,334.7,13.4z M333.2,13.3c0,0.4-0.4,0.5-0.8,0.5
							h0.5c-0.4,0-0.9-0.1-0.9-0.5V8.5c0-0.2,0-0.4,0-0.5h0.3c0.4,0,0.8,0.1,0.8,0.5V13.3z"/>
					</g>
					<path class="st3" d="M284.2,4.1h9.4c0.5,0,0.5,0.4,0.5,0.9v0.4c0,0.3,0,1.1,0.9,1.1c0.6,0,0.9-0.4,0.9-1.1V4.5
						c0-0.9-0.4-1.3-1.5-1.3H290v-1h-1.8v1h-5.8v3.2h1.8V4.1z"/>
					<g>
						<path class="st3" d="M309.9,15.1c-0.1,0-0.1,0-0.1,0c-0.7-0.1-1.4-0.5-1.8-0.8h0.9c1,0,1.4-0.4,1.4-1.3v-2.4
							c0-0.9-0.4-1.3-1.4-1.3h-9.7v0.1c0,0,0,0.3,0,1.2v2.4c0,0.9,0.4,1.3,1.5,1.3h0.7c-0.4,0.4-0.9,0.7-1.6,0.8c0,0-0.1,0-0.1,0
							c-0.3,0.1-0.7,0.1-0.7,0.4c0,0.3,0.2,0.4,0.5,0.4h0c0,0,0,0,0,0c1.1,0,2-0.3,2.6-0.5c0.9-0.3,1.4-0.8,1.6-1.2h2.1
							c0.2,0.3,0.7,0.8,1.6,1.2c0.6,0.2,1.6,0.5,2.6,0.5c0,0,0,0,0,0h0c0.3,0,0.4-0.2,0.5-0.4C310.6,15.2,310.2,15.2,309.9,15.1z
							 M308.5,12H301v-0.6h7.5V12z M301,10.1h7.1c0.3,0,0.4,0,0.4,0.1c0,0.1,0,0.3,0,0.5H301V10.1z M301.6,13.4
							c-0.4,0-0.6-0.1-0.6-0.5h7.5c0,0.5,0,0.5-0.5,0.5H301.6z"/>
						<path class="st3" d="M311.4,6.3h-1.3V6.1c0-0.3,0-0.5-0.1-0.7c0.1,0.1,0.3,0.2,0.7,0.2c0.4,0,0.9-0.2,0.9-1.1V4.4
							c0-0.8-0.5-1.2-1.4-1.2h-4.5v-1h-1.8v1H298v2.5h1.4v0.6h-1.9v0.8h1.9v0.3c0,0.9,0.4,1.3,1.5,1.3h7.8c1,0,1.5-0.4,1.5-1.3V7.2
							h1.3c0.3,0,0.5-0.1,0.5-0.4C311.9,6.5,311.7,6.3,311.4,6.3z M307.9,5.6c0.5,0,0.5,0.1,0.5,0.7h-2.8V5.6H307.9z M309.3,4.1
							c0.3,0,0.4,0.1,0.4,0.4v0.2c0,0.1,0,0.3,0.1,0.6c-0.2-0.3-0.6-0.4-1.2-0.4h-8.9V4.1H309.3z M301.1,5.6h2.7v0.7h-2.7V5.6z
							 M301.1,7.3V7.2h2.7v0.7h-2.2C301.2,7.9,301.1,7.7,301.1,7.3z M308.4,7.3c0,0.5,0,0.6-0.5,0.6h-2.3V7.2h2.8V7.3z"/>
					</g>
				</g>
			</g>
		</g>
	</g>
	<g>
		<path class="st4" d="M90.1,18.6c2.1,0,3.9-1.8,3.9-4c0-2.2-1.8-4.1-3.9-4.1c-2.1,0-3.8,1.9-3.8,4.1C86.3,16.8,88,18.6,90.1,18.6z"
			/>
		<path class="st3" d="M66.7,34.7l-1.1-3.3h-9l-3.9,15.9h11.7l-1.2-3.6l-5.8,0.1l2.2-9.2H66.7z M48.8,47.4l3.9-15.9h-4.2l-1.6,7
			l-4.6-0.1l1.7-7h-4.1l-4.1,15.9h4.2l1.3-5.8H46l-1.1,5.8H48.8z M85.8,11.5l1.7-1.2c-18.6-12.2-57.2,0.9-69,18.3h6.2
			C39.3,12.7,66.1,0.3,85.8,11.5z M93.3,19.8l-1.9,0.3c3.3,32.7-58.3,57.6-74.8,33.4L64.8,53v-3.1L8.7,50.1
			C9.2,88.7,97.2,64,93.3,19.8z M13.6,47.4l2.8-0.1l4.7-15.9h-3.9L15,38.7l-2.1-7.2H9L4.3,47.4l4-0.1l2.3-8L13.6,47.4z M34.4,34.7
			l-1.1-3.3h-8.9l-4,15.9h11.7l-1.2-3.6l-5.9,0.1l2.2-9.2H34.4z"/>
	</g>
	<g>
		<path class="st3" d="M332.6,65.2c0-0.8,0-1.4-0.1-2h1.7l0.1,1h0c0.4-0.5,1.1-1.1,2.4-1.1c1,0,1.8,0.5,2.2,1.2h0
			c0.3-0.4,0.6-0.6,1-0.8c0.4-0.3,0.9-0.4,1.6-0.4c1.3,0,2.6,0.8,2.6,2.9v3.9h-1.9v-3.7c0-1.1-0.4-1.8-1.4-1.8
			c-0.7,0-1.2,0.4-1.4,0.9c0,0.2-0.1,0.4-0.1,0.6v4h-1.9V66c0-0.9-0.4-1.6-1.3-1.6c-0.7,0-1.2,0.5-1.4,1c-0.1,0.2-0.1,0.4-0.1,0.5
			v3.9h-1.9V65.2z"/>
		<path class="st3" d="M388.4,69.6c-0.5,0.2-1.5,0.4-2.8,0.4c-3.4,0-5.5-1.8-5.5-4.6c0-3,2.5-4.9,5.8-4.9c1.3,0,2.2,0.2,2.6,0.4
			l-0.4,1.3c-0.5-0.2-1.2-0.4-2.1-0.4c-2.2,0-3.8,1.2-3.8,3.4c0,2,1.4,3.3,3.8,3.3c0.8,0,1.6-0.1,2.2-0.3L388.4,69.6z"/>
		<g>
			<path class="st3" d="M183.9,69.5c-0.5,0.2-1.5,0.4-2.8,0.4c-3.4,0-5.5-1.8-5.5-4.6c0-3,2.5-4.9,5.8-4.9c1.3,0,2.2,0.2,2.6,0.4
				l-0.4,1.3c-0.5-0.2-1.2-0.4-2.1-0.4c-2.2,0-3.8,1.2-3.8,3.4c0,2,1.4,3.3,3.8,3.3c0.8,0,1.6-0.1,2.2-0.3L183.9,69.5z"/>
			<path class="st3" d="M186.5,66.9c0,1.2,1.2,1.7,2.4,1.7c0.9,0,1.6-0.1,2.2-0.3l0.3,1.2c-0.7,0.2-1.6,0.4-2.7,0.4
				c-2.5,0-4-1.3-4-3.4c0-1.8,1.3-3.6,3.8-3.6c2.5,0,3.4,1.8,3.4,3.2c0,0.3,0,0.6-0.1,0.7H186.5z M190,65.7c0-0.6-0.3-1.6-1.6-1.6
				c-1.2,0-1.7,0.9-1.8,1.6H190z"/>
			<path class="st3" d="M193.1,65.1c0-0.8,0-1.4-0.1-2h1.7l0.1,1h0c0.3-0.5,1.2-1.1,2.5-1.1c1.4,0,2.8,0.8,2.8,2.9v4h-2V66
				c0-1-0.4-1.7-1.5-1.7c-0.8,0-1.3,0.5-1.5,1c-0.1,0.1-0.1,0.4-0.1,0.5v3.9h-2V65.1z"/>
			<path class="st3" d="M204.2,61.2v1.9h1.9v1.3h-1.9v2.9c0,0.8,0.3,1.2,1,1.2c0.3,0,0.6,0,0.8-0.1l0,1.3c-0.3,0.1-0.8,0.2-1.4,0.2
				c-0.7,0-1.3-0.2-1.7-0.5c-0.4-0.4-0.6-1-0.6-1.9v-3.1h-1.1v-1.3h1.1v-1.5L204.2,61.2z"/>
			<path class="st3" d="M208.6,66.9c0,1.2,1.2,1.7,2.4,1.7c0.9,0,1.6-0.1,2.2-0.3l0.3,1.2c-0.7,0.2-1.6,0.4-2.7,0.4
				c-2.5,0-4-1.3-4-3.4c0-1.8,1.3-3.6,3.8-3.6c2.5,0,3.4,1.8,3.4,3.2c0,0.3,0,0.6-0.1,0.7H208.6z M212.1,65.7c0-0.6-0.3-1.6-1.6-1.6
				c-1.2,0-1.7,0.9-1.8,1.6H212.1z"/>
			<path class="st3" d="M215.3,65.2c0-0.9,0-1.5-0.1-2.1h1.7l0.1,1.3h0.1c0.4-0.9,1.3-1.4,2.1-1.4c0.2,0,0.3,0,0.5,0v1.6
				c-0.2,0-0.3-0.1-0.6-0.1c-1,0-1.6,0.5-1.8,1.3c0,0.1-0.1,0.3-0.1,0.5v3.4h-2V65.2z"/>
		</g>
		<g>
			<path class="st3" d="M239.5,65.2c0-0.9,0-1.5-0.1-2.1h1.7l0.1,1.3h0.1c0.4-0.9,1.3-1.4,2.1-1.4c0.2,0,0.3,0,0.5,0v1.6
				c-0.2,0-0.3-0.1-0.6-0.1c-1,0-1.6,0.5-1.8,1.3c0,0.2-0.1,0.3-0.1,0.5v3.4h-2V65.2z"/>
			<path class="st3" d="M238.3,66.3c0,2.5-2.1,3.6-4.1,3.6c-2.3,0-4-1.3-4-3.5c0-2.2,1.7-3.6,4.2-3.6
				C236.7,62.8,238.3,64.2,238.3,66.3z M232.2,66.3c0,1.3,0.8,2.3,2,2.3c1.2,0,2-1,2-2.3c0-1.1-0.6-2.3-1.9-2.3
				C232.8,64,232.2,65.2,232.2,66.3z"/>
			<path class="st3" d="M225.7,69.7v-5.3h-1.2v-1.6h1.2v-0.3c0-0.8,0.2-1.7,0.8-2.3c0.5-0.5,1.2-0.7,1.8-0.7c0.4,0,0.8,0.1,1.1,0.1
				l-0.1,1.6c-0.2-0.1-0.4-0.1-0.7-0.1c-0.7,0-1,0.5-1,1.2v0.4h1.6v1.6h-1.6v5.3H225.7z"/>
		</g>
		<path class="st3" d="M327,65.3c0-0.9,0-1.5-0.1-2.1h1.7l0.1,1.3h0.1c0.4-0.9,1.3-1.4,2.1-1.4c0.2,0,0.3,0,0.5,0v1.6
			c-0.2,0-0.3-0.1-0.6-0.1c-1,0-1.6,0.5-1.8,1.3c0,0.2-0.1,0.3-0.1,0.5v3.4h-2V65.3z"/>
		<path class="st3" d="M325.9,66.4c0,2.5-2.1,3.6-4.1,3.6c-2.3,0-4-1.3-4-3.5c0-2.2,1.7-3.6,4.2-3.6
			C324.3,62.9,325.9,64.3,325.9,66.4z M319.8,66.5c0,1.3,0.8,2.3,2,2.3c1.2,0,2-1,2-2.3c0-1.1-0.6-2.3-1.9-2.3
			C320.4,64.1,319.8,65.3,319.8,66.5z"/>
		<path class="st3" d="M398.9,65.2c0-0.8,0-1.4-0.1-2h1.7l0.1,1h0c0.4-0.5,1.1-1.1,2.4-1.1c1,0,1.8,0.5,2.2,1.2h0
			c0.3-0.4,0.6-0.6,1-0.8c0.4-0.3,0.9-0.4,1.6-0.4c1.3,0,2.6,0.8,2.6,2.9v3.9h-1.9v-3.7c0-1.1-0.4-1.8-1.4-1.8
			c-0.7,0-1.2,0.4-1.4,0.9c0,0.2-0.1,0.4-0.1,0.6v4h-1.9V66c0-0.9-0.4-1.6-1.3-1.6c-0.7,0-1.2,0.5-1.4,1c-0.1,0.2-0.1,0.4-0.1,0.5
			v3.9h-1.9V65.2z"/>
		<path class="st3" d="M397.5,66.4c0,2.5-2.1,3.6-4.1,3.6c-2.3,0-4-1.3-4-3.5c0-2.2,1.7-3.6,4.1-3.6
			C395.9,62.9,397.5,64.3,397.5,66.4z M391.4,66.5c0,1.3,0.8,2.3,2,2.3c1.2,0,2-1,2-2.3c0-1.1-0.6-2.3-1.9-2.3
			C392,64.1,391.4,65.3,391.4,66.5z"/>
		<path class="st3" d="M313.2,69.9v-5.3H312V63h1.2v-0.3c0-0.8,0.2-1.7,0.8-2.3c0.5-0.5,1.2-0.7,1.8-0.7c0.4,0,0.8,0.1,1.1,0.1
			l-0.1,1.6c-0.2-0.1-0.4-0.1-0.7-0.1c-0.7,0-1,0.5-1,1.2V63h1.6v1.6h-1.6v5.3H313.2z"/>
		<g>
			<path class="st3" d="M368.2,69.7c-0.4,0.2-1.2,0.3-2.2,0.3c-2.4,0-4-1.3-4-3.4c0-2,1.6-3.5,4.4-3.5c0.7,0,1.5,0.1,1.9,0.3
				l-0.4,1.3c-0.3-0.1-0.8-0.3-1.5-0.3c-1.5,0-2.4,0.9-2.4,2.2c0,1.4,1,2.1,2.4,2.1c0.7,0,1.2-0.1,1.6-0.3L368.2,69.7z"/>
			<path class="st3" d="M370.8,67c0.1,1.2,1.2,1.7,2.4,1.7c0.9,0,1.6-0.1,2.2-0.3l0.3,1.2c-0.7,0.2-1.6,0.4-2.7,0.4
				c-2.5,0-4-1.3-4-3.4c0-1.8,1.3-3.6,3.8-3.6c2.5,0,3.4,1.8,3.4,3.2c0,0.3,0,0.6-0.1,0.7H370.8z M374.2,65.8c0-0.6-0.3-1.6-1.6-1.6
				c-1.2,0-1.7,0.9-1.8,1.6H374.2z"/>
		</g>
		<path class="st3" d="M455.7,63c0,0.4-0.1,0.9-0.1,1.7v3.4c0,1.3-0.3,2.2-1.1,2.8c-0.8,0.6-1.8,0.7-2.8,0.7c-0.9,0-1.9-0.2-2.5-0.5
			l0.4-1.2c0.5,0.2,1.2,0.5,2.1,0.5c1.2,0,2.1-0.5,2.1-1.8v-0.5h0c-0.4,0.5-1.1,0.9-2.1,0.9c-1.8,0-3-1.2-3-3c0-2,1.5-3.2,3.2-3.2
			c1.1,0,1.7,0.5,2.1,1h0l0.1-0.8H455.7z M453.8,65.4c0-0.1,0-0.3-0.1-0.4c-0.2-0.6-0.7-1-1.5-1c-1,0-1.8,0.8-1.8,2
			c0,1,0.6,1.9,1.7,1.9c0.7,0,1.3-0.4,1.5-0.9c0-0.2,0.1-0.4,0.1-0.5V65.4z"/>
		<path class="st3" d="M270.6,63c0,0.4-0.1,0.9-0.1,1.7v3.4c0,1.3-0.3,2.2-1.1,2.8c-0.7,0.6-1.8,0.7-2.8,0.7c-0.9,0-1.9-0.2-2.5-0.5
			l0.4-1.2c0.5,0.2,1.2,0.5,2.1,0.5c1.2,0,2.1-0.5,2.1-1.8v-0.5h0c-0.4,0.5-1.1,0.9-2.1,0.9c-1.8,0-3-1.2-3-3c0-2,1.5-3.2,3.2-3.2
			c1.1,0,1.7,0.5,2.1,1h0L269,63H270.6z M268.7,65.4c0-0.1,0-0.3-0.1-0.4c-0.2-0.6-0.7-1-1.5-1c-1,0-1.8,0.8-1.8,2
			c0,1,0.6,1.9,1.7,1.9c0.7,0,1.3-0.4,1.5-0.9c0-0.2,0.1-0.4,0.1-0.5V65.4z"/>
		<g>
			<rect x="248.5" y="60.4" class="st3" width="1.9" height="9.5"/>
			<rect x="255.4" y="60.4" class="st3" width="1.9" height="9.5"/>
		</g>
		<path class="st3" d="M288.1,65.3c0-0.9,0-1.6-0.1-2.3h1.8l0.1,1h0c0.6-0.8,1.5-1.2,2.8-1.2c1.8,0,3.4,1.3,3.4,3.5
			c0,2.5-1.8,3.7-3.7,3.7c-1,0-1.8-0.4-2.3-0.9h0v3.5h-2V65.3z M290.2,66.9c0,0.2,0,0.3,0.1,0.5c0.2,0.7,0.9,1.2,1.8,1.2
			c1.3,0,2-0.9,2-2.3c0-1.2-0.7-2.2-2-2.2c-0.8,0-1.6,0.5-1.8,1.3c0,0.1-0.1,0.3-0.1,0.4V66.9z"/>
		<path class="st3" d="M412,65.3c0-0.9,0-1.6-0.1-2.3h1.8l0.1,1h0c0.6-0.8,1.5-1.2,2.8-1.2c1.8,0,3.4,1.3,3.4,3.5
			c0,2.5-1.8,3.7-3.7,3.7c-1,0-1.8-0.4-2.3-0.9h0v3.5h-2V65.3z M414,66.9c0,0.2,0,0.3,0.1,0.5c0.2,0.7,0.9,1.2,1.8,1.2
			c1.3,0,2-0.9,2-2.3c0-1.2-0.7-2.2-2-2.2c-0.8,0-1.6,0.5-1.8,1.3c0,0.1-0.1,0.3-0.1,0.4V66.9z"/>
		<path class="st3" d="M272.7,59.9h2V64h0c0.2-0.3,0.6-0.6,1-0.8c0.4-0.2,0.9-0.3,1.4-0.3c1.4,0,2.8,0.8,2.8,3v4h-2V66
			c0-1-0.4-1.7-1.5-1.7c-0.8,0-1.4,0.4-1.6,1c-0.1,0.1-0.1,0.3-0.1,0.5v4.1h-2V59.9z"/>
		<path class="st3" d="M262,61.1c0,0.5-0.4,0.9-1.2,0.9c-0.7,0-1.1-0.4-1.1-0.9c0-0.5,0.5-0.9,1.1-0.9C261.5,60.2,262,60.6,262,61.1
			z M259.8,69.9V63h2v6.8H259.8z"/>
		<path class="st3" d="M262,61.1c0,0.5-0.4,0.9-1.2,0.9c-0.7,0-1.1-0.4-1.1-0.9c0-0.5,0.5-0.9,1.1-0.9C261.5,60.2,262,60.6,262,61.1
			z M259.8,69.9V63h2v6.8H259.8z"/>
		<path class="st3" d="M438.4,61.1c0,0.5-0.4,0.9-1.2,0.9c-0.7,0-1.1-0.4-1.1-0.9c0-0.5,0.5-0.9,1.1-0.9
			C437.9,60.2,438.3,60.6,438.4,61.1z M436.2,69.9V63h2v6.8H436.2z"/>
		<g>
			<path class="st3" d="M113.8,69.6v-9.4h2.3l2.9,4.1c0.7,1.1,1.4,2.1,1.9,3.2h0c-0.1-1.3-0.2-2.5-0.2-3.9v-3.3h1.9v9.4h-2.1
				l-2.9-4.1c-0.7-1-1.4-2.2-2-3.3l-0.1,0c0.1,1.2,0.1,2.5,0.1,4v3.4H113.8z"/>
			<path class="st3" d="M134.9,60.8v2h1.9V64h-1.9v3c0,0.8,0.3,1.3,1,1.3c0.3,0,0.6,0,0.8-0.1l0,1.3c-0.3,0.1-0.8,0.2-1.5,0.2
				c-0.7,0-1.4-0.2-1.7-0.6c-0.4-0.4-0.6-1-0.6-1.9V64h-1.2v-1.3h1.2v-1.5L134.9,60.8z"/>
			<path class="st3" d="M140.2,60.8c0,0.5-0.4,0.9-1.2,0.9c-0.7,0-1.1-0.4-1.1-0.9c0-0.5,0.5-0.9,1.1-0.9
				C139.8,59.9,140.2,60.3,140.2,60.8z M138,69.6v-6.8h2v6.8H138z"/>
			<path class="st3" d="M149.6,66.1c0,2.5-2.1,3.6-4.1,3.6c-2.3,0-4-1.3-4-3.5c0-2.2,1.7-3.6,4.2-3.6C148,62.6,149.6,64,149.6,66.1z
				 M143.6,66.2c0,1.3,0.8,2.3,2,2.3c1.2,0,2-1,2-2.3c0-1.1-0.6-2.3-1.9-2.3C144.1,63.9,143.6,65,143.6,66.2z"/>
			<path class="st3" d="M151,64.8c0-0.8,0-1.4-0.1-2h1.8l0.1,1h0c0.3-0.5,1.2-1.2,2.6-1.2c1.4,0,2.9,0.8,2.9,2.9v4h-2v-3.9
				c0-1-0.4-1.7-1.5-1.7c-0.8,0-1.4,0.5-1.6,1c-0.1,0.2-0.1,0.4-0.1,0.6v4h-2V64.8z"/>
			<path class="st3" d="M168.2,59.6h2v10h-2V59.6z"/>
			<path class="st3" d="M165.7,69.2c-0.6,0.4-1.7,0.7-2.5,0.7c-0.4,0-0.8,0-1.2-0.1c-1.7-0.3-2.4-1.1-2.4-2.1c0-1.7,1.8-2.6,4.9-2.6
				V65c0-0.4-0.2-1.2-1.7-1.2c-0.8,0-1.7,0.2-2.2,0.5l-0.4-1.1c0.6-0.3,1.7-0.6,3-0.6c2.6,0,3.4,1.4,3.4,2.9c0,0,0,1.1,0,1.8
				C166.5,68,166.3,68.7,165.7,69.2z M164.5,66.2c-1.5,0-2.9,0.2-2.9,1.3c0,0.7,0.5,1,1.2,1c0.8,0,1.2-0.3,1.4-0.5
				c0.2-0.2,0.3-0.6,0.3-0.9C164.5,66.8,164.5,66.2,164.5,66.2z"/>
			<path class="st3" d="M130.2,69.2c-0.6,0.4-1.7,0.7-2.5,0.7c-0.4,0-0.8,0-1.2-0.1c-1.7-0.3-2.4-1.1-2.4-2.1c0-1.7,1.8-2.6,4.9-2.6
				V65c0-0.4-0.2-1.2-1.7-1.2c-0.8,0-1.7,0.2-2.2,0.5l-0.4-1.1c0.6-0.3,1.7-0.6,3-0.6c2.6,0,3.4,1.4,3.4,2.9c0,0,0,1.1,0,1.8
				C131,68,130.8,68.7,130.2,69.2z M129,66.2c-1.5,0-2.9,0.2-2.9,1.3c0,0.7,0.5,1,1.2,1c0.8,0,1.2-0.3,1.4-0.5
				c0.2-0.2,0.3-0.6,0.3-0.9C129,66.8,129,66.2,129,66.2z"/>
		</g>
		<rect x="249.5" y="64.5" class="st3" width="6.9" height="1.3"/>
		<path class="st3" d="M208.6,66.9c0,1.2,1.2,1.7,2.4,1.7c0.9,0,1.6-0.1,2.2-0.3l0.3,1.2c-0.7,0.2-1.6,0.4-2.7,0.4
			c-2.5,0-4-1.3-4-3.4c0-1.8,1.3-3.6,3.8-3.6c2.5,0,3.4,1.8,3.4,3.2c0,0.3,0,0.6-0.1,0.7H208.6z M212.1,65.7c0-0.6-0.3-1.6-1.6-1.6
			c-1.2,0-1.7,0.9-1.8,1.6H212.1z"/>
		<g>
			<path class="st3" d="M299.3,67c0,1.2,1.2,1.7,2.4,1.7c0.9,0,1.6-0.1,2.2-0.3l0.3,1.2c-0.7,0.2-1.6,0.4-2.7,0.4
				c-2.5,0-4-1.3-4-3.4c0-1.8,1.3-3.6,3.8-3.6c2.5,0,3.4,1.8,3.4,3.2c0,0.3,0,0.6-0.1,0.7H299.3z M302.8,65.8c0-0.6-0.3-1.6-1.6-1.6
				c-1.2,0-1.7,0.9-1.8,1.6H302.8z"/>
			<path class="st3" d="M305.9,65.4c0-0.9,0-1.5-0.1-2.1h1.7l0.1,1.3h0.1c0.4-0.9,1.3-1.4,2.1-1.4c0.2,0,0.3,0,0.5,0v1.6
				c-0.2,0-0.3-0.1-0.6-0.1c-1,0-1.6,0.5-1.8,1.3c0,0.2-0.1,0.3-0.1,0.5v3.4h-2V65.4z"/>
		</g>
		<path class="st3" d="M351.3,69.2c-0.6,0.4-1.7,0.7-2.5,0.7c-0.4,0-0.8,0-1.2-0.1c-1.7-0.3-2.4-1.1-2.4-2.1c0-1.7,1.8-2.6,4.9-2.6
			V65c0-0.4-0.2-1.2-1.7-1.2c-0.8,0-1.7,0.2-2.2,0.5l-0.4-1.1c0.6-0.3,1.7-0.6,3-0.6c2.6,0,3.4,1.4,3.4,2.9c0,0,0,1.1,0,1.8
			C352.2,68,351.9,68.7,351.3,69.2z M350.1,66.2c-1.5,0-2.9,0.2-2.9,1.3c0,0.7,0.5,1,1.2,1c0.8,0,1.2-0.3,1.4-0.5
			c0.2-0.2,0.3-0.6,0.3-0.9C350.1,66.8,350.1,66.2,350.1,66.2z"/>
		<path class="st3" d="M353.6,64.8c0-0.8,0-1.4-0.1-2h1.8l0.1,1h0c0.3-0.5,1.2-1.2,2.6-1.2c1.4,0,2.8,0.8,2.8,2.9v4h-2v-3.9
			c0-1-0.4-1.7-1.5-1.7c-0.8,0-1.4,0.5-1.6,1c-0.1,0.2-0.1,0.4-0.1,0.6v4h-2V64.8z"/>
		<path class="st3" d="M440.3,64.8c0-0.8,0-1.4-0.1-2h1.8l0.1,1h0.1c0.3-0.5,1.2-1.2,2.6-1.2c1.4,0,2.8,0.8,2.8,2.9v4h-2v-3.9
			c0-1-0.4-1.7-1.5-1.7c-0.8,0-1.4,0.5-1.6,1c-0.1,0.2-0.1,0.4-0.1,0.6v4h-2V64.8z"/>
		<path class="st3" d="M428.4,67.4c0,0.8,0,1.4,0.1,2h-1.8l-0.1-1h-0.1c-0.3,0.5-1.2,1.2-2.6,1.2c-1.4,0-2.9-0.8-2.9-2.9v-4.1h2v3.9
			c0,1,0.4,1.7,1.5,1.7c0.8,0,1.4-0.5,1.6-1c0.1-0.2,0.1-0.4,0.1-0.6v-4h2V67.4z"/>
		<path class="st3" d="M432.8,61.2v1.9h1.9v1.3h-1.9v2.9c0,0.8,0.3,1.2,1,1.2c0.3,0,0.6,0,0.8-0.1l0,1.3c-0.3,0.1-0.8,0.2-1.4,0.2
			c-0.7,0-1.3-0.2-1.7-0.5c-0.4-0.4-0.6-1-0.6-1.9v-3.1h-1.1v-1.3h1.1v-1.5L432.8,61.2z"/>
		<path class="st3" d="M285.6,65.5v1.4h-3.5v-1.4H285.6z"/>
	</g>
	<g>
		<g>
			<path class="st3" d="M205.2,27.8h-1.5h-9.9v-2.4h-3.7v2.4h-9.2h-3.2v1.8h27.5c0.2,0,0.9-0.2,0.9-0.9
				C206.1,28,205.5,27.8,205.2,27.8z"/>
			<path class="st3" d="M201.9,40.8h-23.3v13.4h3.6V42.6h18c1.2,0,1.4,0.4,1.4,1.5v6.7c0,1.2-0.2,1.6-1.4,1.6h-1.3
				c-0.3,0-1,0.2-1,0.9c0,0.8,0.7,0.9,1,0.9h3.1c1.9,0,3.3-0.6,3.3-3v-7.3C205.1,41.7,204.2,40.8,201.9,40.8z"/>
			<path class="st3" d="M198,38.4c1.5,0,2.6-0.4,2.6-2.4v-1.4c0-1.9-1-2.4-2.6-2.4h-14.8V36c0,1.9,1,2.4,2.7,2.4H198z M186.8,34h9.6
				c0.6,0,0.7,0.1,0.7,0.8v1c0,0.7-0.1,0.8-0.7,0.8h-8.9c-0.7,0-0.7-0.1-0.7-0.8V34z"/>
			<path class="st3" d="M198,47.1c0-1.6-0.5-2.6-2.8-2.6h-6.6c-2.1,0-2.8,0-2.8,0V49c0,1.7,0.6,2.6,2.8,2.6h6.6c2,0,2.8-0.7,2.8-2.6
				V47.1z M194.8,48.5c0,1-0.2,1.3-1.2,1.3h-3.5c-1,0-1.2-0.2-1.2-1.3v-2.3h4.7c1,0,1.2,0.2,1.2,1.3V48.5z"/>
		</g>
		<g>
			<path class="st3" d="M236.9,52.4h-13.3c-3.3,0-7.9-0.9-7.9-4.1v-7.7c0-1.6-0.6-2.6-2.8-2.6h-3.5v1.8h1.9c1.1,0,1.3,0.3,1.3,1.4
				c0,0,0,5.3,0,7.1c0,1.7-1.9,2.7-2.7,3.1c-1.6,0.7-0.8,3.4,0.9,2.7c1.2-0.5,2.2-1.4,3.3-2.9c2.2,3,4.4,3,8.3,3h14.5
				c0.3,0,1.1,0,1.1-0.9C238,52.5,237.2,52.4,236.9,52.4z"/>
			<path class="st3" d="M212.1,33c0.9,0,2.6,0,3.8,0c-0.4-3-3.8-6.7-5.6-7.1c-0.4-0.1-0.7,0.4-0.7,0.7c0,0.2,0.1,0.4,0.2,0.6
				C210.7,28.7,211.6,30,212.1,33z"/>
			<path class="st3" d="M225.5,33.2h-3.9h-2.8v5.3c0,1.7,0.6,2.6,2.8,2.6h2.6c-1.7,4-4.7,6.2-6.4,7.5c-0.2,0.2-0.5,0.4-0.5,0.8
				c0,0.4,0.3,0.8,0.7,0.8c0.4,0,4.2-1.2,7.6-5.6V50c0,1,0.6,2,1.8,2c1.4,0,1.9-1.1,1.9-2v-5.9c2.9,4.3,6.7,6,7.3,6
				c0.3,0,0.7-0.3,0.7-0.8c0-0.4-0.2-0.6-0.5-0.7c-2.8-2.4-5.1-5-6-7.5h2.5c1.9,0,2.8-0.7,2.8-2.6v-2.7c0-1.7-0.6-2.6-2.8-2.6h-4
				v-2.5h7.8c0.2,0,0.9-0.2,0.9-0.9c0-0.7-0.6-0.9-0.9-0.9h-1.4h-6.4v-3h-3.7v3h-6.2h-2.4v1.8h8.6V33.2z M225.5,39.3h-2.4
				c-1.1,0-1.3-0.3-1.3-1.4v-3c0,0,0.2,0,1.3,0h2.4V39.3z M229.2,34.9h2.4c1.1,0,1.3,0.3,1.3,1.4v1.6c0,1.1-0.1,1.4-1.3,1.4h-2.4
				V34.9z"/>
		</g>
		<g>
			<path class="st3" d="M298,42.7h-9.8v8.8c0,2,0.8,2.8,3,2.8h6.8c1.9,0,3-0.6,3-2.8v-6C301,43.5,300.2,42.7,298,42.7z M297.4,50.9
				c0,1.2-0.2,1.5-1.4,1.5h-2.6c-1.2,0-1.4-0.3-1.4-1.5v-6.5h4.1c1.1,0,1.4,0.2,1.4,1.5V50.9z"/>
			<path class="st3" d="M285.5,48.8c-0.3,0.1-1.3,0.4-2.9,0.8v-6.2h2.5c0.2,0,0.9-0.2,0.9-0.9c0-0.7-0.6-0.9-0.9-0.9h-1.2
				c0,0,0,0-0.1,0h-1.1v-4.5c2.2,0,2.9-0.9,2.9-2.6V29c0-1.6-0.5-2.6-2.8-2.6h-7.1v8.1c0,1.7,0.6,2.6,2.8,2.6h1.3v11.5v1.5
				c-0.5,0.1-1.1,0.2-1.6,0.2v-1.8v-9.5h-2.5v11.5c-0.4,0-0.8,0.1-1.3,0.1v3.4c0,0,8.8-2.4,11.7-4c0.7-0.4,0.6-0.6,0.5-1
				C286.4,48.7,286.1,48.6,285.5,48.8z M281.4,35.4h-1.6c-1.1,0-1.3-0.2-1.3-1.4v-5.7h2.9c1.1,0,1.3,0.3,1.3,1.4V34
				C282.7,35.1,282.5,35.4,281.4,35.4z"/>
			<path class="st3" d="M301.2,40.3c-0.6-0.3-2.6-1.1-5.1-3c2.2-1.9,4.2-4.4,5.2-7.4l0-0.3c0-0.1,0-1.7-2-1.7H293
				c0.3-0.6,0.6-1.4,0.6-1.4h-4c0,0-0.4,3.3-2.3,6.4c-0.2,0.4-1.4,2-1.4,2.3c0,0.4,0.3,0.8,0.7,0.8c0.5,0,1.6-1.1,2.7-2.5
				c0.5,0.7,1.6,2.1,3.5,3.6c-1.4,1.3-3.3,2.6-5.8,4c-0.5,0.2-0.7,0.8-0.5,1c0.1,0.2,0.5,0.6,1.2,0.3c0.4-0.2,3.6-1.4,7-3.9
				c1.3,1,3.3,2.2,3.9,2.5c0.6,0.3,2.3,1,2.7,1.2c0.5,0.1,1.1,0.4,1.3-0.3C303,40.9,301.8,40.6,301.2,40.3z M294.4,35.5
				c-1.1-1.3-2.4-2.7-3-4.8c0.3-0.4,0.8-1.1,0.8-1.1h4.5c0.1,0,0.7,0,0.7,0.5C297.4,30.4,297,32.6,294.4,35.5z"/>
		</g>
		<path class="st3" d="M395.4,47.1h-6.9V45h1.5c1.9,0,3.1-0.7,3.1-2.9v-7.5c0-1.4-0.4-2.2-1.3-2.6c-0.4-1.2-1.5-2.5-2-3.1h5.4
			c0.2,0,0.9-0.2,0.9-0.9s-0.6-0.9-0.9-0.9h-3.4h-4.8c0.2-0.3,0.5-0.5,0.8-1.2H384c-0.3,1.3-1.1,2.9-2.7,4.5
			c-0.2,0.3-0.4,0.5-0.4,0.7c0,0.2,0.1,0.4,0.2,0.5h-1.8c-0.5-1.1-1.4-2.2-1.8-2.8h3.2c0.3,0,0.9-0.2,0.9-0.9s-0.6-0.9-0.9-0.9h-1.2
			h-4.8c0.2-0.3,0.5-0.5,0.8-1.2h-3.9c-0.6,1.7-1.6,3.5-3.3,5.4c-0.2,0.3-0.4,0.5-0.4,0.7c0,0.4,0.3,0.7,0.7,0.7
			c0.5,0,2.6-1.4,5.1-3.9h1.4c0.5,0.7,0.9,2.1,1.2,2.8h-4.8v10.4c0,2,0.9,2.9,3.1,2.9h1.4c0,0,0,1.6,0,2.1H368v1.8h7.6
			c-0.3,1-1.3,2.2-3.5,3.1c-0.7,0.3-1.7,0.6-2.4,0.7c-0.7,0.1-1,0.3-1.1,0.7c-0.1,0.4,0.3,0.8,0.9,0.8c0.6,0,8.2-0.1,9.8-5.3h5.6
			v0.7v2.4c0,1,0.4,2.2,1.9,2.2c1.7,0,1.8-1.7,1.8-2.2v-3.2h6.9c0.2,0,0.9-0.2,0.9-0.9C396.3,47.3,395.6,47.1,395.4,47.1z
			 M385.9,28.9h1.4c0.5,0.7,1,2.1,1.2,2.8h-6C383.1,31.3,384.3,30.5,385.9,28.9z M374.9,33.5H388c1.1,0,1.3,0.5,1.3,1.6v0.5h-14.4
			V33.5z M374.9,37.3h14.4v2.1h-14.4V37.3z M384.8,47.1h-5.4v0c0-0.5,0-1.5,0-2.1h5.4V47.1z M388,43.2h-11.8c-1.1,0-1.3-0.3-1.3-1.1
			v-1h14.4v0.8C389.3,42.9,389.1,43.2,388,43.2z"/>
		<g>
			<path class="st3" d="M241.9,50.8c-0.1,0.5-0.4,1.1-0.4,1.4c0,0.4,0,0.7,0.5,0.7c0.3,0,0.5-0.2,0.6-0.5c1.3-2.1,2.4-6,2.4-8.5
				c-0.9,0-1.6,0-2.3,0C242.8,46.2,242.5,48.5,241.9,50.8z"/>
			<path class="st3" d="M260.8,34.7c-0.1-1.3-2.2-4.4-3.1-4.7c-0.5-0.2-0.8,0.5-0.5,1c0.6,0.9,1,2.6,1.3,3.7
				C258.9,34.7,260.5,34.7,260.8,34.7z"/>
			<path class="st3" d="M262.1,34.3c-0.2,0.6,0.3,0.9,0.7,0.7c0.7-0.3,3.1-2.7,2.9-5c-0.5,0-2.4,0-2.4,0s0.2,0.5-0.3,2.3
				C262.9,33,262.2,34,262.1,34.3z"/>
			<path class="st3" d="M265.5,50c0-0.6-0.6-0.9-0.9-0.9h-2.2c-1.1,0-1.3-0.3-1.3-1.4v-4.6h3.5c0.2,0,0.9-0.2,0.9-0.9
				c0-0.7-0.6-0.9-0.9-0.9h-2v-4.1h2c0.2,0,0.9-0.2,0.9-0.9c0-0.7-0.6-0.9-0.9-0.9h-0.8h-6.3h-0.1v1.8h2.6v4.1h-2.6v1.8h1.2v5.1
				c0,2,0.9,2.6,2.7,2.6h3.2C264.8,51,265.5,50.8,265.5,50z"/>
			<path class="st3" d="M250.1,43.8c-0.3,0-0.5,0.3-0.5,0.7c0,0.3,1,3.2,0.5,8.4c1,0,1,0,2.3,0c0-3.5-1-7.7-1.8-8.7
				C250.6,44,250.4,43.8,250.1,43.8z"/>
			<path class="st3" d="M266.4,26.4h-13.2v25.3v2.5h3.3v-26h8.5c1.2,0,1.4,0.5,1.4,1.5v21.1c0,1.2-0.2,1.5-1.4,1.5h-1.2
				c-0.5,0-0.9,0.2-0.9,0.9c0,0.7,0.4,0.9,0.9,0.9h2.6c2.3,0,3.3-0.9,3.3-3.1V29.6C269.7,27,268.4,26.4,266.4,26.4z"/>
			<path class="st3" d="M249.6,36.7c-0.3,0-0.7,0.3-0.7,0.7c0,0.2,0.3,0.6,0.5,1.8c-2.4,0.1-2.7,0.1-3.3,0.2
				c2.9-3.2,6.4-9.1,6.4-9.1h-3.3c0,0-1.2,2.6-1.4,3c-0.3-0.5-1.3-1.2-1.9-1.7c1.1-1.3,2.6-3.9,3-5.6c-0.8,0-2.3,0-3.1,0
				c-0.3,1.2-0.3,2.6-1.3,4.6c-0.4-0.2-1.4-0.9-1.7-0.9c-0.4,0-0.8,0.3-0.8,0.7c0,0.4,0.2,0.5,0.4,0.7c1.3,1.2,3.5,4.2,3.8,4.9
				c-0.3,0.5-0.9,1.4-2.4,3.5c-1.2,0.2-1.9,0.1-1.9,0.1v2.7c0,0,3.3-0.4,3.9-0.5l0.2,0v10.7c0,0.5,0,1.9,1.3,1.9
				c1.3,0,1.3-1.3,1.3-1.9V41.1l0.2,0c0.4-0.1,0.8-0.2,1.1-0.3c0.1,0.4,0.1,0.6,0.1,0.6s0.9,0,1.7,0h1
				C251.9,37.9,250.1,36.7,249.6,36.7z"/>
		</g>
		<g>
			<path class="st3" d="M333.8,44.6h-1.1V28.8c0-1.5-1.1-2.4-2.4-2.4h-5.2v1.5h3c0.6,0,1,0.4,0.9,1v3.2h-3.5v1.8h3.5v4.3h-3.5V40
				h3.5v4.7h-5.2v-8.3c0-1.5-0.9-2.3-2.3-2.3h-1c-0.9,0-0.9-0.6-0.9-0.9v-1.8h3.5c0.2,0,0.9-0.2,0.9-0.9c0-0.7-0.6-0.9-0.9-0.9h-3.5
				v-3.2h-3v7.2c0,0.8,0.5,2.1,2.3,2.1h1c0.6,0,0.9,0.3,0.9,0.9v8.1h-1.7v-7.7h-2.5v7.7h-5.8V40h3.1c0.2,0,0.9-0.2,0.9-0.9
				c0-0.7-0.6-0.9-0.9-0.9h-3.1v-4.3h3.1c0.2,0,0.9-0.2,0.9-0.9c0-0.7-0.6-0.9-0.9-0.9h-3.1v-3.2c0-0.6,0.3-1,0.9-1h3v-1.5h-5.2
				c-1.3,0-2.4,1-2.4,2.4v15.8h-1.7v1.8h28.3c0.3,0,0.9-0.2,0.9-0.9C334.7,44.8,334.1,44.6,333.8,44.6z"/>
			<path class="st3" d="M307.3,52.7c-0.3,0.1-0.6,0.4-0.6,0.8c0,0.4,0.5,0.7,1,0.7c5.5-0.7,9.6-5.1,9.9-6.5c-1,0-3.6,0-4.3,0
				C312.2,50.4,309.8,51.6,307.3,52.7z"/>
			<path class="st3" d="M332.7,52.7c-2.7-1.5-5.1-3.1-6-5.1c-1.3,0-3.3,0-4.4,0c1.3,3.5,8,6.5,10.2,6.6c0.5,0,0.7-0.4,0.7-0.8
				C333.2,53.1,333,52.9,332.7,52.7z"/>
		</g>
		<g>
			<path class="st3" d="M364.9,35.5h-4.4v-9.6H357v9.6h-5.8v1.7h5.8v14.9c0,0.6,0.2,2.1,1.7,2.1c1.6,0,1.7-1.5,1.7-2.1V37.2h4.4
				c0.2,0,0.8-0.2,0.8-0.8C365.7,35.7,365.1,35.5,364.9,35.5z"/>
			<path class="st3" d="M349,27.7c0-0.6-0.6-0.8-0.8-0.8h-9.1v1.7h9.1C348.4,28.6,349,28.4,349,27.7z"/>
			<path class="st3" d="M349.3,31.1h-11.5v1.7h11.5c0.2,0,0.8-0.2,0.8-0.8C350.1,31.3,349.6,31.1,349.3,31.1z"/>
			<path class="st3" d="M349,36.2c0-0.6-0.6-0.8-0.8-0.8h-9.1v1.7h9.1C348.4,37.1,349,36.9,349,36.2z"/>
			<path class="st3" d="M339.1,41.4h9.1c0.2,0,0.8-0.2,0.8-0.8c0-0.6-0.6-0.8-0.8-0.8h-9.1V41.4z"/>
			<path class="st3" d="M347.1,44H339v7c0,1.4,0.5,2.4,2.6,2.4h5.6c1.8,0,2.6-0.7,2.6-2.4v-4.5C349.8,44.8,349.1,44,347.1,44z
				 M346.4,50.7c0,1-0.1,1.3-1.2,1.3h-1.7c-1,0-1.2-0.3-1.2-1.3v-5.3h2.9c1,0,1.2,0.2,1.2,1.3V50.7z"/>
		</g>
		<g>
			<path class="st3" d="M173.6,51c-0.2-0.2-0.4-0.4-0.6-0.5c-1.7-1.2-4.3-3.4-5.8-8.2c3.4-1.2,5-3.5,5.2-5.2l0-0.3h-4l0,0.2
				c-0.3,1.1-0.7,2.6-1.8,3.2c-0.3-1.4-0.5-4.1-0.6-5.9h2.3c0.7,0,1.1-0.4,1.1-1c0-0.6-0.4-1-1.1-1h-16.7v2h4.4
				c-0.8,1.1-2.6,3.7-7.4,5.7c-0.3,0.1-0.8,0.4-0.8,1c0,0.6,0.5,1,0.9,1c0.5,0,1.9-0.6,3.2-1.1c1.5-0.6,3.8-2.2,5.7-3.6
				c0.2,0.2,0.3,0.4,0.6,0.8c-3.7,4.2-8.4,6.5-10.1,7.1c-0.5,0.2-0.8,0.5-0.8,1c0,0.5,0.4,1,0.9,1c0.6,0,6.9-2,11.4-5.9
				c0.1,0.3,0.2,0.6,0.3,1.1l0,0c-3.3,3.7-7.5,6.5-12.5,8.2c-0.3,0.1-0.9,0.3-0.9,1c0,0.6,0.5,1,0.9,1c0.4,0,7.3-1.8,13-6.3
				c0.2,2.5-0.3,4.9-1,5.7c-0.5,0.5-1.1,0.5-1.7,0.5h-2.3c-0.7,0-1.1,0.4-1.1,1c0,0.7,0.6,1,1.1,1h4.4c2.8,0,4.2-2.3,4.2-6.5
				c0-5.1-1.6-9.1-4.8-11.9c0.8-0.6,1.1-1.1,1.6-1.6h1.5c0.9,7.8,3.1,12,5.4,14.6c1.7,2,4.1,3.6,5.4,4c0.5,0.1,0.9-0.4,0.9-1
				C174,51.4,173.7,51.1,173.6,51z"/>
		</g>
		<g>
			<path class="st3" d="M121.1,44.9h3.4c1.2,0,2.4-0.2,2.4-2v-5c0-1.7-1.2-2-2.4-2h-5.9l0,0.2c0,0,0,0.3,0,1.8v5
				C118.7,44.7,119.9,44.9,121.1,44.9z M121.6,38.5l0-0.7h1.7c0.7,0,0.8,0.1,0.8,0.7v3.8c0,0.6-0.1,0.7-0.8,0.7h-0.9
				c-0.7,0-0.8-0.1-0.8-0.7V38.5z"/>
			<path class="st3" d="M137.4,25.9h-23.7v24.9c0,1.6,0.4,3.4,3.8,3.4h19.8c2.6,0,3.8-1.1,3.8-3.4V29.4
				C141.3,27.9,140.9,25.9,137.4,25.9z M137.5,51.1c0,1.1-0.5,1.4-1.4,1.4h-17.2c-1.2,0-1.4-0.4-1.4-1.4V30.3l0-2.6l18.6,0
				c1.1,0,1.4,0.3,1.4,1.4V51.1z"/>
			<path class="st3" d="M126.8,47.2c0-0.6-0.4-0.9-1.1-0.9h-7.1v1.8h7.1C126.4,48.1,126.8,47.8,126.8,47.2z"/>
			<path class="st3" d="M133.4,36.4c-0.2,1.6-0.8,4.1-1.8,6c-0.2-1.4-0.6-5.3-0.6-8.6h4.7c0.7,0,1.1-0.3,1.1-0.9
				c0-0.7-0.6-0.9-1.1-0.9h-0.1c-0.5-1.2-1.2-2.2-2.1-2.7c-0.2-0.1-0.3-0.1-0.5-0.1c-0.5,0-0.8,0.3-0.8,0.8c0,0.3,0.2,0.6,0.3,0.9
				c0,0.1,0.1,0.1,0.1,0.1c0.2,0.4,0.3,0.7,0.4,1h-1.9l0-2.9l-3.5,0v2.9h-9v1.8h9c0.1,5.5,0.7,8.2,1.9,11.7c-1,1.8-2.8,3.3-4.2,4.2
				l-0.1,0.1c-0.3,0.2-0.7,0.4-0.7,0.8c0,0.6,0.4,0.7,0.8,0.7c0.7,0,3.4-1.7,5.2-3.7c0.4,0.8,0.8,1.4,1.3,2c0.9,1,1.7,1.7,3.1,1.7
				h0.5c1,0,1.1-0.6,1.1-0.9c0-0.3-0.1-0.9-1.1-0.9H135c-0.6,0-1.2-0.6-1.7-1.5c0,0-0.7-1-1-2.3c2.1-2.5,3.8-6,4.4-9.4l0-0.3l-3.4,0
				L133.4,36.4z"/>
		</g>
		<path class="st3" d="M149.7,29.4h19.8c1,0,1,0.9,1,1.8V32c0,0.6,0,2.3,1.9,2.3c1.3,0,1.9-0.8,1.9-2.3v-1.8c0-1.9-0.9-2.8-3.1-2.8
			H162v-2.1h-3.8v2.1H146v6.8h3.7V29.4z"/>
		<g>
			<g>
				<path class="st3" d="M450,52.5h-8.6c-1.2,0-1.4-0.3-1.4-1.6V32.5h-3.4v18.7c0,2.3,0.9,3.1,3.2,3.1H450c1.4,0,2.2,0,2.2-1
					C452.2,52.4,451.2,52.5,450,52.5z"/>
				<path class="st3" d="M432.9,36c-0.5,0-0.9,0.5-1,1.3c-0.1,1.6-0.5,3.4-1.3,5.8c-0.8,2.2-2.1,4.7-3,6.3c1.5,0,3,0,4.2,0
					c0.3-0.6,1.2-3.4,1.6-5.7c0.4-2.2,0.8-5.3,0.6-6.5C433.9,36.1,433.4,35.9,432.9,36z"/>
				<path class="st3" d="M454.5,38.5c-1.5-2-2.6-3.3-3.5-3.4c-0.5-0.1-0.9,0.2-0.9,0.8c0,0.5,0.5,1.1,0.8,1.6
					c1.4,2.4,2.6,5.5,2.8,9.2c2.1,0,2.1,0,4.2,0C457.7,43.9,456.2,40.8,454.5,38.5z"/>
				<path class="st3" d="M437.6,27.4c3.3,1.2,5.2,4,6.1,5.5c1,0,3.8,0,4.4,0c-0.7-1.9-4.6-6.5-10.4-7c-0.3,0-0.7,0.3-0.7,0.8
					C437.1,27.1,437.4,27.3,437.6,27.4z"/>
			</g>
			<path class="st3" d="M422,30.6h-7.8v-4.7h-3.7v4.7h-7.8c-2.2,0-3.6,0-3.6,0v11.1c0,2.7,1.1,3.5,3.6,3.5h7.8v7
				c0,0.9,0.2,2.3,1.8,2.3c1.7,0,1.9-1.4,1.9-2.3v-7h7.8c2.2,0,3.6-0.5,3.6-3.5v-7.6C425.7,31.4,424.5,30.6,422,30.6z M410.5,43.6
				h-6.1c-1,0-1.6-0.3-1.6-1.7v-9.8h7.7V43.6z M421.9,41.9c0,1.5-0.7,1.7-1.6,1.7h-6.1V32.1h6.1c1.3,0,1.6,0.6,1.6,1.7V41.9z"/>
		</g>
	</g>
</g>
</svg>
