<?xml version="1.0" encoding="utf-8"?>
<!-- Generator: Adobe Illustrator 24.2.3, SVG Export Plug-In . SVG Version: 6.00 Build 0)  -->
<svg version="1.1" id="圖層_1" xmlns="http://www.w3.org/2000/svg" xmlns:xlink="http://www.w3.org/1999/xlink" x="0px" y="0px"
	 viewBox="0 0 24 24" style="enable-background:new 0 0 24 24;" xml:space="preserve">
<style type="text/css">
	.st0{fill:none;stroke:#000000;stroke-linecap:round;stroke-linejoin:round;stroke-miterlimit:10;}
</style>
<g>
	<circle class="st0" cx="11" cy="12" r="7"/>
	<g>
		<path d="M11.5,10.1c0-0.5-0.3-0.7-0.7-0.7s-0.7,0.2-1,0.5L8.7,9c0.6-0.7,1.4-1.1,2.3-1.1c1.3,0,2.3,0.6,2.3,2
			c0,1.4-1.8,1.9-1.6,3.2H10C9.8,11.6,11.5,10.9,11.5,10.1z M9.8,15c0-0.6,0.5-1.1,1.1-1.1c0.6,0,1.1,0.5,1.1,1.1
			c0,0.6-0.5,1.1-1.1,1.1C10.2,16.1,9.8,15.6,9.8,15z"/>
	</g>
</g>
</svg>
