<?xml version="1.0" encoding="utf-8"?>
<!-- Generator: Adobe Illustrator 24.2.3, SVG Export Plug-In . SVG Version: 6.00 Build 0)  -->
<svg version="1.1" id="圖層_1" xmlns="http://www.w3.org/2000/svg" xmlns:xlink="http://www.w3.org/1999/xlink" x="0px" y="0px"
	 viewBox="0 0 24 24" style="enable-background:new 0 0 24 24;" xml:space="preserve">
<style type="text/css">
	.st0{fill:none;stroke:#000000;stroke-linecap:round;stroke-linejoin:round;stroke-miterlimit:10;}
	.st1{fill:none;stroke:#000000;stroke-width:0.75;stroke-linecap:round;stroke-linejoin:round;stroke-miterlimit:10;}
</style>
<rect x="3.6" y="13.9" class="st0" width="17.1" height="6.2"/>
<polygon class="st0" points="16.8,4.3 7.4,4.3 3.6,13.9 20.6,13.9 "/>
<polyline class="st0" points="8.2,18.3 8.2,16.4 16,16.4 16,18.3 "/>
<path class="st1" d="M17.5,11.6c0,0-2.4,0-5.4,0s-5.4,0-5.4,0s2.4,0,5.4,0S17.5,11.6,17.5,11.6z"/>
<path class="st1" d="M15.5,6.4c0,0-1.5,0-3.4,0s-3.4,0-3.4,0s1.5,0,3.4,0S15.5,6.4,15.5,6.4z"/>
<path class="st1" d="M16.5,8.9c0,0-2,0-4.4,0s-4.4,0-4.4,0s2,0,4.4,0S16.5,8.9,16.5,8.9z"/>
<path class="st1" d="M8.2,18.4c0,0,0.7-2,2.5-2"/>
<path class="st1" d="M16,18.4c0,0-0.7-2-2.5-2"/>
</svg>
