<?xml version="1.0" encoding="utf-8"?>
<!-- Generator: Adobe Illustrator 25.0.1, SVG Export Plug-In . SVG Version: 6.00 Build 0)  -->
<svg version="1.1" id="圖層_1" xmlns="http://www.w3.org/2000/svg" xmlns:xlink="http://www.w3.org/1999/xlink" x="0px" y="0px"
	 viewBox="0 0 24 24" style="enable-background:new 0 0 24 24;" xml:space="preserve">
<style type="text/css">
	.st0{fill:none;stroke:#000000;stroke-width:0.5;stroke-miterlimit:10;}
	.st1{fill:#040000;stroke:#000000;stroke-width:0.15;stroke-miterlimit:10;}
</style>
<rect x="2.2" y="7.4" class="st0" width="16.7" height="7.8"/>
<polyline class="st0" points="18.9,10.3 21.5,10.3 21.5,17.8 5.6,17.8 5.6,15.2 "/>
<circle class="st0" cx="10.5" cy="11.3" r="2.8"/>
<g>
	<path class="st1" d="M11.1,10.4c-0.2-0.2-0.3-0.2-0.5-0.2c-0.3,0-0.4,0.1-0.4,0.4c0,0.6,1.3,0.5,1.3,1.4c0,0.4-0.3,0.7-0.7,0.8v0.5
		h-0.3v-0.5c-0.3,0-0.6-0.2-0.8-0.4l0.2-0.3c0.2,0.2,0.4,0.3,0.7,0.3s0.5-0.2,0.5-0.4c0-0.7-1.3-0.5-1.3-1.4c0-0.4,0.3-0.7,0.7-0.8
		V9.3h0.3v0.5c0.3,0,0.5,0.2,0.7,0.4L11.1,10.4z"/>
</g>
<circle class="st0" cx="5.6" cy="11.3" r="0.6"/>
<circle class="st0" cx="15.6" cy="11.3" r="0.6"/>
<line class="st0" x1="3.5" y1="7.4" x2="3.5" y2="15.2"/>
<line class="st0" x1="17.5" y1="7.4" x2="17.5" y2="15.2"/>
</svg>
