<?xml version="1.0" encoding="utf-8"?>
<!-- Generator: Adobe Illustrator 25.0.1, SVG Export Plug-In . SVG Version: 6.00 Build 0)  -->
<svg version="1.1" id="圖層_1" xmlns="http://www.w3.org/2000/svg" xmlns:xlink="http://www.w3.org/1999/xlink" x="0px" y="0px"
	 viewBox="0 0 24 24" style="enable-background:new 0 0 24 24;" xml:space="preserve">
<g>
	<g>
		<path d="M15.6,21.3H9.2c-0.5,0-1-0.2-1.4-0.5l-5.2-4.5c-0.5-0.4-0.7-1-0.7-1.6v-7C1.9,6.7,2.7,6,3.6,6h12c0.9,0,1.7,0.7,1.7,1.7
			v12C17.3,20.6,16.5,21.3,15.6,21.3z M3.6,7.3c-0.2,0-0.4,0.2-0.4,0.4v7c0,0.2,0.1,0.5,0.3,0.6l5.2,4.5C8.8,20,9,20,9.2,20h6.4
			c0.2,0,0.4-0.2,0.4-0.4v-12c0-0.2-0.2-0.4-0.4-0.4H3.6z"/>
	</g>
	<g>
		<path d="M8.5,21.1c-0.2,0-0.4-0.1-0.5-0.2l-5.5-4.8c-0.2-0.2-0.3-0.6-0.2-0.9c0.1-0.3,0.4-0.5,0.7-0.5h5.5c0.4,0,0.8,0.4,0.8,0.8
			v4.8c0,0.3-0.2,0.6-0.5,0.7C8.7,21.1,8.6,21.1,8.5,21.1z M4.3,16L8,19.3V16H4.3z M8.5,16L8.5,16L8.5,16z M3.3,15.1L3.3,15.1
			C3.3,15.1,3.3,15.1,3.3,15.1z"/>
	</g>
	<g>
		<path d="M22,5.5l-1.5-2.6c-0.1-0.2-0.3-0.2-0.5-0.1L8.4,9.6c-0.2,0.1-0.2,0.3-0.1,0.5l1.5,2.6c0.1,0.2,0.3,0.2,0.5,0.1l11.6-6.9
			C22,5.8,22.1,5.6,22,5.5z"/>
		<path d="M7.6,10.9l1.1,1.9c0.2,0.3-0.1,0.6-0.4,0.6l-1.9-0.2c-0.3,0-0.4-0.3-0.3-0.5L7,10.9C7.1,10.6,7.5,10.6,7.6,10.9z"/>
	</g>
</g>
</svg>
