<?xml version="1.0" encoding="utf-8"?>
<!-- Generator: Adobe Illustrator 24.2.3, SVG Export Plug-In . SVG Version: 6.00 Build 0)  -->
<svg version="1.1" id="圖層_1" xmlns="http://www.w3.org/2000/svg" xmlns:xlink="http://www.w3.org/1999/xlink" x="0px" y="0px"
	 viewBox="0 0 24 24" style="enable-background:new 0 0 24 24;" xml:space="preserve">
<style type="text/css">
	.st0{fill:none;stroke:#000000;stroke-linecap:round;stroke-linejoin:round;stroke-miterlimit:10;}
	.st1{fill:none;stroke:#000000;stroke-width:0.75;stroke-linecap:round;stroke-linejoin:round;stroke-miterlimit:10;}
	.st2{fill:none;stroke:#000000;stroke-width:0.5;stroke-linecap:round;stroke-linejoin:round;stroke-miterlimit:10;}
</style>
<g>
	<polyline class="st0" points="18.1,16.5 18.1,5.9 2.8,5.9 2.8,16.5 	"/>
	<line class="st0" x1="4.7" y1="7.9" x2="16.2" y2="7.9"/>
	<rect x="11.6" y="9.5" class="st1" width="4.6" height="7.4"/>
	<line class="st2" x1="4.7" y1="11.8" x2="10.3" y2="11.8"/>
	<line class="st2" x1="4.7" y1="13" x2="10.3" y2="13"/>
	<line class="st2" x1="4.7" y1="14.2" x2="10.3" y2="14.2"/>
	<line class="st2" x1="4.7" y1="15.4" x2="7.6" y2="15.4"/>
	<line class="st1" x1="4.7" y1="9.7" x2="10.4" y2="9.7"/>
	<line class="st0" x1="19.7" y1="18.1" x2="4.2" y2="18.1"/>
	<polyline class="st0" points="18.1,9.3 21.2,9.3 21.2,16.6 	"/>
	<path class="st0" d="M4.3,18.1c-0.8,0-1.5-0.7-1.5-1.5"/>
	<path class="st0" d="M19.7,18.1c-0.8,0-1.5-0.7-1.5-1.5"/>
	<path class="st0" d="M19.7,18.1c0.8,0,1.5-0.7,1.5-1.5"/>
</g>
</svg>
