<?xml version="1.0" encoding="utf-8"?>
<!-- Generator: Adobe Illustrator 24.2.3, SVG Export Plug-In . SVG Version: 6.00 Build 0)  -->
<svg version="1.1" id="圖層_1" xmlns="http://www.w3.org/2000/svg" xmlns:xlink="http://www.w3.org/1999/xlink" x="0px" y="0px"
	 viewBox="0 0 24 24" style="enable-background:new 0 0 24 24;" xml:space="preserve">
<style type="text/css">
	.st0{fill:none;stroke:#000000;stroke-width:1.5;stroke-miterlimit:10;}
</style>
<path class="st0" d="M14,7.1l2.4,2.3c0.2,0.2,0.3,0.6,0.2,0.8c-0.6,1.1-1.2,2.2-2.4,3.4c-1.2,1.2-2.3,2.1-3.5,2.7
	c-0.3,0.2-0.6,0.1-0.8-0.1l-2.4-2.3c-0.3-0.3-0.7-0.3-1,0l-3.8,4c-0.3,0.3-0.3,0.7,0,1l2.6,2.5c0.1,0.1,0.2,0.2,0.3,0.2
	c1,0.2,5.9,0.8,11.5-5S21.9,6,21.7,4.9c0-0.1-0.1-0.2-0.2-0.3l-2.6-2.5c-0.3-0.3-0.7-0.3-1,0l-3.8,4C13.7,6.4,13.7,6.8,14,7.1z"/>
</svg>
