<?xml version="1.0" encoding="utf-8"?>
<!-- Generator: Adobe Illustrator 24.2.3, SVG Export Plug-In . SVG Version: 6.00 Build 0)  -->
<svg version="1.1" id="圖層_1" xmlns="http://www.w3.org/2000/svg" xmlns:xlink="http://www.w3.org/1999/xlink" x="0px" y="0px"
	 viewBox="0 0 24 24" style="enable-background:new 0 0 24 24;" xml:space="preserve">
<style type="text/css">
	.st0{fill:#FFFFFF;}
</style>
<circle cx="12" cy="12" r="10"/>
<g>
	<path class="st0" d="M12.86,9.54c0-0.64-0.42-1.04-1.08-1.04c-0.56,0-1,0.29-1.41,0.71L9.34,8.27C10.01,7.52,10.91,7,12.01,7
		c1.53,0,2.64,0.79,2.64,2.41c0,1.8-2.21,2.41-2.02,4.21h-1.63C10.7,11.57,12.86,10.76,12.86,9.54z M10.67,15.78
		c0-0.69,0.5-1.22,1.16-1.22c0.67,0,1.17,0.53,1.17,1.22S12.5,17,11.82,17C11.16,17,10.67,16.47,10.67,15.78z"/>
</g>
</svg>
