<?xml version="1.0" encoding="utf-8"?>
<!-- Generator: Adobe Illustrator 25.0.1, SVG Export Plug-In . SVG Version: 6.00 Build 0)  -->
<svg version="1.1" id="圖層_1" xmlns="http://www.w3.org/2000/svg" xmlns:xlink="http://www.w3.org/1999/xlink" x="0px" y="0px"
	 viewBox="0 0 24 24" style="enable-background:new 0 0 24 24;" xml:space="preserve">
<style type="text/css">
	.st0{fill:none;stroke:#787878;stroke-width:0.75;stroke-miterlimit:10;}
	.st1{fill:#787878;}
</style>
<path class="st0" d="M12,8.2c-3.4,0-6.3,2-7.6,3.1c-0.4,0.4-0.4,1,0,1.4c1.3,1.1,4.2,3.2,7.6,3.2s6.3-2.1,7.6-3.2
	c0.4-0.4,0.4-1,0-1.4C18.3,10.2,15.4,8.2,12,8.2z M12,15.4c-1.9,0-3.4-1.5-3.4-3.4s1.5-3.4,3.4-3.4s3.4,1.5,3.4,3.4
	S13.9,15.4,12,15.4z"/>
<circle class="st1" cx="12" cy="12" r="1.9"/>
</svg>
